<?xml version="1.0" encoding="utf-8"?>
<!-- Generator: Adobe Illustrator 16.2.0, SVG Export Plug-In . SVG Version: 6.00 Build 0)  -->
<!DOCTYPE svg PUBLIC "-//W3C//DTD SVG 1.1//EN" "http://www.w3.org/Graphics/SVG/1.1/DTD/svg11.dtd">
<svg version="1.1" id="Layer_1" xmlns="http://www.w3.org/2000/svg" xmlns:xlink="http://www.w3.org/1999/xlink" x="0px" y="0px"
	 width="43px" height="30px" viewBox="0 0 43 30" enable-background="new 0 0 43 30" xml:space="preserve">
<path fill="#FFFFFF" d="M39.927,8.095c-0.559-1.449-1.093-3.069-1.916-4.394c-0.699-1.125-2.47-0.865-2.787,0.44
	c-0.289,1.187,0.993,2.938,1.428,4.008c0.598,1.471,1.149,2.964,1.608,4.484c0.581,1.924,2.57,8.049-0.364,8.971
	c-2.652,0.833-6.049-1.261-7.973-2.89c0.232-0.112,0.451-0.227,0.659-0.343c0.011-0.007,0.022-0.014,0.034-0.02
	c0.09-0.051,0.177-0.103,0.263-0.154c0.06-0.036,0.118-0.073,0.177-0.11c0.03-0.02,0.061-0.037,0.09-0.057
	c1.309-0.845,2.434-2.012,2.709-3.591c0.401-2.303-1.291-4.786-2.691-6.464c-3.056-3.658-7.582-5.756-12.13-6.875
	c-2.607-0.642-5.289-1.002-7.974-1.063C9.457,0.001,5.131-0.351,5.015,2.108C4.965,3.147,6.07,4.089,6.627,4.874
	c0.717,1.009,1.387,2.052,1.978,3.14c1.092,2.009,2.021,4.333,1.938,6.667c-2.623-0.69-5.891-1.585-8.579-0.774
	c-2.821,0.852-2.279,3.954-0.413,5.535c1.982,1.68,4.904,2.19,7.408,2.415c2.935,0.263,5.961-0.062,8.883-0.366
	c0.117,2.909,0.897,8.281,4.744,8.482c2.437,0.25,4.606-1.296,4.585-3.849c-0.018-2.191-2.077-4.181-3.655-5.46
	c0.343-0.066,0.684-0.143,1.024-0.222c0.677-0.148,1.562-0.347,2.247-0.514c2.113,2.101,4.707,3.988,7.541,4.556
	c1.623,0.423,3.322,0.509,4.827-0.088C45.213,21.992,41.53,12.247,39.927,8.095z M21.646,17.891
	c-0.226,0.038-0.451,0.075-0.677,0.11c0.058-0.839,0.076-1.682,0.162-2.519c0.041-0.899,0.156-1.792,0.197-2.69
	c0,0,0.843,1.511,2.293,3.455c0.259,0.368,0.527,0.731,0.805,1.086C23.306,17.592,22.284,17.781,21.646,17.891z M6.307,18.35
	c-1.646-0.321-3.004-1.146-2.931-1.53c0.073-0.384,1.469-0.44,3.117-0.125c0.81,0.154,3.01,0.672,4.974,1.225
	c2.03,0.571,3.811,1.175,3.811,1.175S10.607,19.187,6.307,18.35z M19.634,7.892c-0.716,0.243-1.192,0.937-1.227,1.682
	c-0.118,2.583-0.255,5.15-0.459,7.725c-2.18-0.895-2.123-0.895-4.32-1.726c0.054-0.363,0.074-0.73,0.075-1.097
	c0.002-0.896-0.126-1.792-0.327-2.664c-0.727-3.155-2.371-6.068-4.229-8.687c5.224-0.285,10.979,0.812,15.533,3.428
	c2.093,1.202,3.957,2.832,5.209,4.9c0.506,0.903,1.144,2.539,0.01,3.731c-0.438,0.46-1.276,0.876-2.27,1.237
	c-0.184-0.215-0.394-0.481-0.569-0.701c-1.679-2.092-2.867-4.55-4.622-6.577C21.747,8.348,20.768,7.508,19.634,7.892z
	 M23.951,25.311c0.387,0.662,0.237,1.469-0.335,1.803c-0.572,0.334-1.349,0.067-1.735-0.595c-0.19-0.325-0.571-1.298-0.785-2.249
	c-0.221-0.982-0.271-1.939-0.271-1.939s0.705,0.466,1.421,1.11C22.991,24.112,23.753,24.972,23.951,25.311z"/>
</svg>
