<?xml version="1.0" encoding="utf-8"?>
<!-- Generator: Adobe Illustrator 17.1.0, SVG Export Plug-In . SVG Version: 6.00 Build 0)  -->
<!DOCTYPE svg PUBLIC "-//W3C//DTD SVG 1.1//EN" "http://www.w3.org/Graphics/SVG/1.1/DTD/svg11.dtd">
<svg version="1.1" id="Layer_1" xmlns="http://www.w3.org/2000/svg" xmlns:xlink="http://www.w3.org/1999/xlink" x="0px" y="0px"
	 viewBox="0 0 43 30" enable-background="new 0 0 43 30" xml:space="preserve">
<path fill="#00AEFF" d="M39.9,8.1C39.4,6.6,38.8,5,38,3.7c-0.7-1.1-2.5-0.9-2.8,0.4c-0.3,1.2,1,2.9,1.4,4c0.6,1.5,1.1,3,1.6,4.5
	c0.6,1.9,2.6,8-0.4,9c-2.7,0.8-6-1.3-8-2.9c0.2-0.1,0.5-0.2,0.7-0.3c0,0,0,0,0,0c0.1-0.1,0.2-0.1,0.3-0.2c0.1,0,0.1-0.1,0.2-0.1
	c0,0,0.1,0,0.1-0.1c1.3-0.8,2.4-2,2.7-3.6c0.4-2.3-1.3-4.8-2.7-6.5C28.1,4.3,23.6,2.2,19,1.1c-2.6-0.6-5.3-1-8-1.1
	C9.5,0,5.1-0.4,5,2.1c0,1,1.1,2,1.6,2.8c0.7,1,1.4,2.1,2,3.1c1.1,2,2,4.3,1.9,6.7C7.9,14,4.7,13.1,2,13.9c-2.8,0.9-2.3,4-0.4,5.5
	c2,1.7,4.9,2.2,7.4,2.4c2.9,0.3,6-0.1,8.9-0.4c0.1,2.9,0.9,8.3,4.7,8.5c2.4,0.2,4.6-1.3,4.6-3.8c0-2.2-2.1-4.2-3.7-5.5
	c0.3-0.1,0.7-0.1,1-0.2c0.7-0.1,1.6-0.3,2.2-0.5c2.1,2.1,4.7,4,7.5,4.6c1.6,0.4,3.3,0.5,4.8-0.1C45.2,22,41.5,12.2,39.9,8.1z
	 M21.6,17.9c-0.2,0-0.5,0.1-0.7,0.1c0.1-0.8,0.1-1.7,0.2-2.5c0-0.9,0.2-1.8,0.2-2.7c0,0,0.8,1.5,2.3,3.5c0.3,0.4,0.5,0.7,0.8,1.1
	C23.3,17.6,22.3,17.8,21.6,17.9z M6.3,18.4c-1.6-0.3-3-1.1-2.9-1.5c0.1-0.4,1.5-0.4,3.1-0.1c0.8,0.2,3,0.7,5,1.2
	c2,0.6,3.8,1.2,3.8,1.2S10.6,19.2,6.3,18.4z M19.6,7.9c-0.7,0.2-1.2,0.9-1.2,1.7c-0.1,2.6-0.3,5.2-0.5,7.7c-2.2-0.9-2.1-0.9-4.3-1.7
	c0.1-0.4,0.1-0.7,0.1-1.1c0-0.9-0.1-1.8-0.3-2.7C12.6,8.7,11,5.7,9.1,3.1c5.2-0.3,11,0.8,15.5,3.4c2.1,1.2,4,2.8,5.2,4.9
	c0.5,0.9,1.1,2.5,0,3.7c-0.4,0.5-1.3,0.9-2.3,1.2c-0.2-0.2-0.4-0.5-0.6-0.7c-1.7-2.1-2.9-4.6-4.6-6.6C21.7,8.3,20.8,7.5,19.6,7.9z
	 M24,25.3c0.4,0.7,0.2,1.5-0.3,1.8c-0.6,0.3-1.3,0.1-1.7-0.6c-0.2-0.3-0.6-1.3-0.8-2.2c-0.2-1-0.3-1.9-0.3-1.9s0.7,0.5,1.4,1.1
	C23,24.1,23.8,25,24,25.3z"/>
</svg>
