<?xml version="1.0" encoding="utf-8"?>
<!-- Generator: Adobe Illustrator 16.2.0, SVG Export Plug-In . SVG Version: 6.00 Build 0)  -->
<!DOCTYPE svg PUBLIC "-//W3C//DTD SVG 1.1//EN" "http://www.w3.org/Graphics/SVG/1.1/DTD/svg11.dtd">
<svg version="1.1" id="Layer_1" xmlns="http://www.w3.org/2000/svg" xmlns:xlink="http://www.w3.org/1999/xlink" x="0px" y="0px"
	 width="100px" height="100px" viewBox="0 0 100 100" enable-background="new 0 0 100 100" xml:space="preserve">
<path fill="#FFFFFF" d="M18.457,1.775c-0.679,0.301-1.409,0.504-2.175,0.596c0.782-0.469,1.383-1.21,1.665-2.095
	c-0.731,0.434-1.542,0.749-2.404,0.919C14.852,0.459,13.868,0,12.778,0c-2.091,0-3.786,1.695-3.786,3.786
	c0,0.297,0.033,0.586,0.098,0.863C5.943,4.491,3.152,2.984,1.285,0.692c-0.326,0.56-0.513,1.21-0.513,1.904
	c0,1.313,0.668,2.473,1.685,3.151c-0.621-0.02-1.205-0.189-1.715-0.473c0,0.016,0,0.031,0,0.047c0,1.835,1.306,3.365,3.037,3.713
	C3.461,9.122,3.126,9.168,2.781,9.168C2.537,9.168,2.3,9.144,2.069,9.1c0.482,1.504,1.881,2.599,3.538,2.629
	c-1.296,1.016-2.928,1.622-4.703,1.622c-0.306,0-0.607-0.019-0.903-0.054C1.676,14.373,3.666,15,5.805,15
	c6.965,0,10.774-5.771,10.774-10.775c0-0.164-0.004-0.327-0.011-0.49C17.308,3.202,17.949,2.535,18.457,1.775z"/>
<g>
	<path fill="#FFFFFF" d="M22.445,1.625c0,0.898-0.664,1.626-1.755,1.626c-1.027,0-1.69-0.728-1.69-1.626C19,0.706,19.685,0,20.733,0
		C21.781,0,22.424,0.706,22.445,1.625z M19.086,15V4.536h3.252V15H19.086z"/>
	<path fill="#FFFFFF" d="M24.284,7.874c0-1.305-0.042-2.396-0.085-3.338h2.824l0.15,1.455h0.063c0.428-0.685,1.477-1.69,3.231-1.69
		c2.14,0,3.744,1.434,3.744,4.515V15H30.96V9.201c0-1.349-0.471-2.269-1.648-2.269c-0.898,0-1.433,0.621-1.668,1.22
		c-0.086,0.214-0.107,0.514-0.107,0.813V15h-3.253V7.874z"/>
</g>
<path fill="#FFFFFF" d="M42.146,5.397c-1.107-1.969-2.291-3.573-2.378-3.69c-1.787,0.844-3.12,2.489-3.535,4.473
	C36.4,6.183,39.069,6.215,42.146,5.397z M42.943,7.549c0.084-0.026,0.168-0.052,0.252-0.076c-0.161-0.364-0.336-0.729-0.52-1.088
	c-3.298,0.987-6.463,0.915-6.576,0.912c-0.002,0.067-0.005,0.135-0.005,0.203c0,1.647,0.622,3.148,1.643,4.283
	c-0.002-0.002-0.004-0.005-0.004-0.005S39.487,8.667,42.943,7.549z M38.563,12.549l0.001-0.002c-0.048-0.038-0.099-0.071-0.145-0.11
	C38.504,12.505,38.563,12.549,38.563,12.549z M40.966,1.281c-0.006,0.001-0.012,0.003-0.017,0.004
	C40.959,1.283,40.965,1.282,40.966,1.281L40.966,1.281z M46.73,2.693c-1.128-0.994-2.608-1.599-4.23-1.599
	c-0.521,0-1.025,0.064-1.509,0.181c0.097,0.129,1.299,1.727,2.394,3.737C45.801,4.107,46.713,2.719,46.73,2.693z M42.5,15
	c-4.142,0-7.5-3.358-7.5-7.5S38.358,0,42.5,0C46.643,0,50,3.358,50,7.5S46.643,15,42.5,15z M43.59,8.548
	c-3.76,1.31-5,3.945-5.025,3.999c1.086,0.849,2.45,1.358,3.936,1.358c0.887,0,1.732-0.181,2.5-0.507
	c-0.095-0.562-0.467-2.523-1.368-4.864C43.618,8.539,43.604,8.543,43.59,8.548z M43.878,5.966c0.149,0.306,0.293,0.616,0.426,0.929
	c0.048,0.11,0.093,0.221,0.138,0.331c2.212-0.278,4.39,0.193,4.461,0.209c-0.015-1.52-0.558-2.913-1.457-4.004
	C47.434,3.45,46.406,4.934,43.878,5.966z M44.832,8.237c0.842,2.312,1.183,4.192,1.247,4.575c1.438-0.971,2.46-2.511,2.745-4.296
	C48.696,8.475,46.903,7.906,44.832,8.237z"/>
<g>
	<path fill="#FFFFFF" d="M51.613,1.123c0.506,0.271,7.498,4.028,7.76,4.167c0.26,0.14,0.598,0.208,0.938,0.208
		s0.678-0.067,0.938-0.208c0.26-0.139,7.254-3.896,7.758-4.167C69.512,0.852,69.99,0,69.061,0h-17.5
		C50.631,0,51.109,0.852,51.613,1.123z M69.221,3.192C68.646,3.491,61.6,7.177,61.248,7.36c-0.352,0.184-0.598,0.208-0.938,0.208
		s-0.586-0.024-0.938-0.208c-0.353-0.183-7.397-3.869-7.974-4.167C50.997,2.981,51,3.229,51,3.419c0,0.191,0,7.589,0,7.589
		C51,11.441,51.578,12,52.025,12H68.59c0.448,0,1.025-0.559,1.025-0.992c0,0,0-7.398,0-7.589C69.62,3.229,69.625,2.981,69.221,3.192
		z"/>
</g>
<g>
	<path fill="#FFFFFF" d="M14.543,28.23L1.702,20.274C0.766,19.66,0,20.112,0,21.278v15.444c0,1.166,0.766,1.617,1.702,1.003
		l12.842-7.956c0,0,0.457-0.321,0.457-0.77S14.543,28.23,14.543,28.23z"/>
</g>
<g>
	<path fill="#FFFFFF" d="M20.457,29.77l12.842,7.956C34.234,38.339,35,37.888,35,36.722V21.277c0-1.166-0.766-1.617-1.702-1.003
		l-12.842,7.955c0,0-0.457,0.321-0.457,0.77S20.457,29.77,20.457,29.77z"/>
</g>
<circle fill="#00AEFF" cx="52" cy="32" r="14"/>
<path fill="#FFFFFF" d="M52,22c-5.522,0-10,4.478-10,10s4.478,10,10,10c5.521,0,10-4.478,10-10S57.521,22,52,22z M55.995,34.708
	c0.356,0.355,0.098,0.675-0.257,1.03c-0.355,0.356-0.678,0.613-1.033,0.258L52,33.289l-2.708,2.708
	c-0.355,0.355-0.676,0.099-1.03-0.258c-0.357-0.355-0.613-0.675-0.258-1.03l2.706-2.708l-2.706-2.708
	c-0.355-0.355-0.099-0.676,0.258-1.03c0.354-0.356,0.675-0.613,1.03-0.258L52,30.712l2.706-2.708
	c0.354-0.355,0.677-0.098,1.032,0.258c0.354,0.355,0.613,0.676,0.257,1.031L53.289,32L55.995,34.708z"/>
<g>
	<path fill="#FFFFFF" d="M84,22.54c0-3.058,0-3.356,0-3.356C84,18.058,80.417,16,76,16s-8,2.058-8,3.184c0,0,0,0.298,0,3.356
		c0,3.057,5.539,5.582,5.539,7.746S68,34.975,68,38.032c0,3.056,0,3.354,0,3.354c0,1.128,3.583,3.184,8,3.184s8-2.056,8-3.184
		c0,0,0-0.298,0-3.354c0-3.058-5.539-5.583-5.539-7.747S84,25.597,84,22.54z M70.2,19.326c0.995-0.626,2.856-1.545,5.878-1.545
		s5.725,1.545,5.725,1.545c0.202,0.124,0.997,0.548,0.453,0.872c-1.201,0.709-3.543,1.455-6.256,1.455
		c-2.711,0-4.977-0.822-6.178-1.531C69.279,19.798,70.2,19.326,70.2,19.326z M76.716,30.285c0,1.704,1.423,2.803,2.933,4.266
		c1.1,1.07,2.607,2.537,2.607,3.481v1.897c-1.387-0.69-5.529-1.364-5.529-3.576c0-1.121-1.451-1.121-1.451,0
		c0,2.212-4.143,2.886-5.53,3.576v-1.897c0-0.944,1.511-2.411,2.606-3.481c1.51-1.463,2.935-2.562,2.935-4.266
		c0-1.703-1.425-2.802-2.935-4.266c-1.097-1.07-2.606-2.536-2.606-3.48l-0.063-1.427c1.465,0.789,3.786,1.54,6.319,1.54
		s4.867-0.751,6.334-1.54l-0.078,1.427c0,0.944-1.509,2.41-2.606,3.48C78.139,27.483,76.716,28.582,76.716,30.285z"/>
</g>
<g>
	<path fill="#FFFFFF" d="M13.809,46.19c-1.387-1.388-2.429-1.179-2.429-1.179l-4.857,4.858L0.971,55.42L0,60l4.579-0.971
		l5.552-5.553l4.857-4.856C14.988,48.62,15.197,47.579,13.809,46.19z M4.307,58.479l-1.561,0.336
		c-0.151-0.282-0.332-0.564-0.665-0.896c-0.332-0.332-0.614-0.514-0.896-0.664l0.336-1.561l0.451-0.452c0,0,0.85,0.017,1.809,0.977
		c0.96,0.959,0.977,1.81,0.977,1.81L4.307,58.479z"/>
</g>
</svg>
