<?xml version="1.0" encoding="utf-8"?>
<!-- Generator: Adobe Illustrator 16.2.0, SVG Export Plug-In . SVG Version: 6.00 Build 0)  -->
<!DOCTYPE svg PUBLIC "-//W3C//DTD SVG 1.1//EN" "http://www.w3.org/Graphics/SVG/1.1/DTD/svg11.dtd">
<svg version="1.1" id="Layer_1" xmlns="http://www.w3.org/2000/svg" xmlns:xlink="http://www.w3.org/1999/xlink" x="0px" y="0px"
	 width="200px" height="200px" viewBox="0 0 200 200" enable-background="new 0 0 200 200" xml:space="preserve">
<g>
	<path fill="#FFFFFF" d="M29.694,98.516c-0.365,1.92-0.845,5.03-0.96,6.563c-0.058,0.769,0.211,1.307,1.132,1.307h0.404
		c-0.134,0.597-0.308,1.958-0.365,2.554c0,0-2.649-0.039-4.146-0.039c-1.498,0-4.146,0.039-4.146,0.039
		c0.134-0.596,0.326-1.957,0.384-2.554h0.384c0.884,0,1.344-0.5,1.517-1.307c0.326-1.517,0.787-4.644,1.017-6.563h-0.442
		c-0.921,0-1.324,0.672-1.573,1.786l-0.288,1.267c-0.634-0.039-1.978-0.039-2.61,0c0.229-1.439,0.633-4.51,0.787-5.949
		c0.979,0.057,1.574,0.096,4.108,0.096h5.682c2.303,0,3.436-0.096,4.108-0.096c-0.27,1.439-0.807,4.51-0.999,5.949
		c-0.634-0.039-1.978-0.039-2.611,0l0.115-1.267c0.115-1.114-0.115-1.786-1.036-1.786H29.694z"/>
	<path fill="#FFFFFF" d="M45.22,104.943c-0.326,2.399-1.343,4.438-3.781,4.438c-2.515,0-2.706-1.881-2.072-4.109l0.538-1.957
		c0.422-1.517,0.345-2.016,0.114-2.016c-0.518,0-1.095,1.209-1.708,4.376l-0.634,3.226c0,0-1.267-0.057-1.977-0.057
		c-0.73,0-1.997,0.057-1.997,0.057c0.519-2.398,1.671-7.582,2.035-9.98c0.096-0.574,0.076-1.17-0.537-1.17h-0.269
		c0.077-0.499,0.134-1.574,0.134-2.074c1.19,0.039,3.763,0.039,4.952,0c0,1.44-0.307,2.995-0.441,3.667l-0.307,1.536
		c0.672-0.922,1.612-1.439,2.86-1.439c2.246,0,2.534,1.805,2.054,3.896l-0.634,2.668c-0.192,0.787-0.423,1.519-0.02,1.519
		c0.308,0,0.577-1.133,0.864-2.574h0.826V104.943z"/>
	<path fill="#FFFFFF" d="M54.472,105.251c-0.384,2.384-1.555,4.13-5.01,4.13c-3.051,0-4.166-1.439-3.512-4.973
		c0.634-3.34,2.553-4.973,5.489-4.973c2.745,0,3.858,1.324,3.513,3.205c-0.345,1.92-1.824,2.381-4.856,2.268
		c-0.327,1.553-0.077,1.921,0.576,1.921c0.634,0,0.921-0.479,1.171-1.577C52.476,105.291,53.839,105.291,54.472,105.251z
		 M50.268,104.141c0.653-0.02,0.903-0.25,1.19-1.401c0.269-1.095,0.249-1.707-0.038-1.707
		C51.112,101.029,50.939,101.261,50.268,104.141z"/>
	<path fill="#FFFFFF" d="M69.616,96.117c0.672,0.383,1.247,0.172,1.42-0.653c0.403,0.038,1.459,0.038,1.862,0
		c-0.519,1.036-0.884,3.819-1.038,5.336c0,0-1.114-0.058-1.555-0.058c-0.422,0-1.708,0.058-1.708,0.058
		c0.269-1.728-0.039-2.647-1.383-2.647c-1.286,0-1.861,0.574-2.399,4.106c-0.537,3.627,0.076,4.146,1.152,4.146
		c1.381,0,2.016-0.729,2.227-2.668c0,0,1.112,0.039,1.727,0.039c0.616,0,1.728-0.039,1.728-0.039
		c-0.479,3.841-2.456,5.646-6.411,5.646c-4.435,0-6.469-2.072-5.74-7.122c0.73-4.684,3.225-6.987,6.834-6.987
		C67.83,95.271,68.771,95.636,69.616,96.117z"/>
	<path fill="#FFFFFF" d="M72.359,104.755c0.44-4.051,3.07-5.317,5.797-5.317c2.917,0,4.337,1.517,4.087,4.549
		c-0.269,3.455-2.551,5.396-5.778,5.396C73.567,109.381,72.033,107.709,72.359,104.755z M78.078,103.314
		c0.289-1.537,0.423-2.018-0.056-2.018c-0.405,0-0.922,0.825-1.459,3.686c-0.327,1.785-0.422,2.535,0.039,2.535
		C77.005,107.52,77.541,106.173,78.078,103.314z"/>
	<path fill="#FFFFFF" d="M81.764,103.891c0.288-2.397,1.344-4.453,3.416-4.453c1.459,0,2.092,0.748,2.189,2.071
		c0.73-1.438,1.9-2.071,3.225-2.071c1.228,0,2.072,0.479,2.245,1.785c0.73-1.248,1.842-1.785,3.091-1.785
		c1.747,0,2.706,0.979,2.034,3.896l-0.653,2.84c-0.249,1.114-0.172,1.347,0.039,1.347c0.327,0,0.595-1.097,0.788-2.574h0.805
		c-0.211,2.4-1.266,4.438-3.724,4.438c-2.495,0-2.667-1.861-2.053-4.107l0.538-1.957c0.479-1.769,0.345-2.018,0.114-2.018
		c-0.518,0-0.939,0.77-1.9,5.145L91.38,108.9c0,0-1.363-0.059-2.13-0.059c-0.769,0-2.15,0.059-2.15,0.059
		c0.383-1.344,1.094-4.262,1.401-5.604c0.327-1.537,0.345-1.997,0-1.997c-0.423,0-0.979,0.787-1.844,5.105l-0.499,2.496
		c0,0-1.286-0.059-1.997-0.059c-0.709,0-1.977,0.059-1.977,0.059c0.345-1.535,0.999-4.838,1.286-6.375
		c0.211-1.094,0.269-1.229,0.019-1.229c-0.422,0-0.788,1.152-0.941,2.592h-0.784V103.891z"/>
	<path fill="#FFFFFF" d="M98.136,103.891c0.288-2.397,1.344-4.453,3.417-4.453c1.459,0,2.092,0.748,2.188,2.071
		c0.729-1.438,1.899-2.071,3.225-2.071c1.228,0,2.073,0.479,2.246,1.785c0.729-1.248,1.843-1.785,3.09-1.785
		c1.747,0,2.707,0.979,2.035,3.896l-0.651,2.84c-0.25,1.114-0.174,1.347,0.037,1.347c0.326,0,0.596-1.097,0.787-2.574h0.807
		c-0.211,2.4-1.268,4.438-3.724,4.438c-2.497,0-2.669-1.861-2.055-4.107l0.538-1.957c0.48-1.769,0.346-2.018,0.115-2.018
		c-0.521,0-0.94,0.77-1.901,5.145l-0.538,2.459c0,0-1.361-0.059-2.13-0.059s-2.149,0.059-2.149,0.059
		c0.385-1.344,1.094-4.262,1.401-5.604c0.326-1.536,0.345-1.997,0-1.997c-0.422,0-0.979,0.787-1.843,5.105l-0.499,2.496
		c0,0-1.286-0.057-1.995-0.057c-0.711,0-1.979,0.057-1.979,0.057c0.346-1.535,0.999-4.838,1.286-6.375
		c0.211-1.094,0.269-1.229,0.019-1.229c-0.422,0-0.786,1.152-0.94,2.592h-0.787V103.891z"/>
	<path fill="#FFFFFF" d="M126.793,104.943c-0.25,2.399-1.344,4.438-3.438,4.438c-1.438,0-2.168-0.558-2.228-2.111
		c-0.711,1.535-1.842,2.111-3.108,2.111c-2.324,0-2.668-1.824-2.149-3.898l0.672-2.668c0.211-0.823,0.403-1.516,0.077-1.516
		c-0.439,0-0.788,1.152-0.922,2.592h-0.786c0.307-2.397,1.344-4.453,3.55-4.453c2.497,0,2.648,1.842,2.131,4.108l-0.461,1.955
		c-0.306,1.31-0.402,2.019-0.02,2.019c0.404,0,0.923-0.959,1.785-5.146l0.52-2.534c0,0,1.287,0.038,1.997,0.038
		c0.709,0,1.978-0.038,1.978-0.038c-0.328,1.497-0.979,4.78-1.269,6.276c-0.114,0.672-0.288,1.401,0.039,1.401
		c0.325,0,0.614-1.097,0.825-2.574H126.793L126.793,104.943z"/>
	<path fill="#FFFFFF" d="M126.33,103.891c0.289-2.397,1.363-4.453,3.551-4.453c1.439,0,1.958,0.901,2.055,2.071
		c0.672-1.304,1.748-2.071,3.244-2.071c2.264,0,2.668,1.823,2.131,3.896l-0.729,2.84c-0.25,0.942-0.211,1.347,0.059,1.347
		c0.287,0,0.557-1.097,0.768-2.574h0.806c-0.231,2.4-1.286,4.438-3.724,4.438c-2.342,0-2.745-1.996-2.111-4.107l0.596-1.957
		c0.537-1.748,0.308-2.018,0.096-2.018c-0.557,0-1.016,0.979-1.844,5.104l-0.498,2.496c0,0-1.268-0.057-1.979-0.057
		c-0.71,0-1.996,0.057-1.996,0.057c0.346-1.533,1.057-4.838,1.307-6.373c0.152-0.883,0.172-1.229,0-1.229
		c-0.422,0-0.787,1.152-0.94,2.592H126.33z"/>
	<path fill="#FFFFFF" d="M143.125,106.173c-0.229,1.037-0.191,1.347,0.059,1.347c0.309,0,0.576-1.097,0.785-2.574h0.809
		c-0.229,2.4-1.285,4.438-3.629,4.438c-2.227,0-2.937-1.285-2.092-4.205l0.75-2.648c0.191-0.612,0.27-1.229,0.021-1.229
		c-0.443,0-0.808,1.152-0.94,2.592H138.1c0.287-2.397,1.344-4.453,3.437-4.453c2.073,0,2.879,1.498,2.264,3.994L143.125,106.173z
		 M142.089,98.956c-1.286,0-2.016-0.92-1.881-2.147c0.134-1.096,0.979-2.188,2.554-2.188c1.381,0,2.092,1.017,1.938,2.188
		C144.546,97.9,143.682,98.956,142.089,98.956z"/>
	<path fill="#FFFFFF" d="M151.514,104.943c-0.212,2.399-1.268,4.438-3.725,4.438c-2.323,0-2.764-1.422-2.477-3.227
		c0.191-1.133,0.69-3.725,0.938-5.201l-0.519,0.021l0.136-1.098c2.743-0.02,3.356-1.113,3.914-2.84h1.422l-0.479,2.879l1.478-0.039
		l-0.19,1.098l-1.459-0.021c-0.211,1.171-0.576,3.265-0.691,4.163c-0.25,1.922-0.324,2.401,0.078,2.401
		c0.229,0,0.576-1.097,0.768-2.574H151.514z"/>
	<path fill="#FFFFFF" d="M159.861,101.164c-0.096-0.096-0.27-0.172-0.5-0.172c-0.881,0-1.533,0.671-1.994,3.013
		c-0.23,1.171-0.788,3.765-0.979,4.935c0,0-1.268-0.039-1.979-0.039s-1.997,0.039-1.997,0.039c0.325-1.438,0.94-4.627,1.229-6.065
		c0.152-0.845,0.324-1.573,0.058-1.573c-0.403,0-0.767,1.152-0.921,2.592h-0.787c0.287-2.397,1.363-4.453,3.552-4.453
		c1.381,0,1.918,0.865,2.054,1.957c0.576-1.496,1.594-1.957,2.438-1.957c1.44,0,2.149,0.939,1.881,2.629
		c-0.229,1.479-1.019,2.132-2.091,2.132c-0.924,0-1.768-0.692-1.497-1.845C158.538,101.471,159.209,101.164,159.861,101.164z"/>
	<path fill="#FFFFFF" d="M170.093,105.251c-0.384,2.384-1.556,4.13-5.01,4.13c-3.052,0-4.165-1.439-3.513-4.973
		c0.633-3.34,2.553-4.973,5.488-4.973c2.746,0,3.858,1.324,3.514,3.205c-0.346,1.92-1.823,2.381-4.856,2.268
		c-0.325,1.553-0.075,1.921,0.576,1.921c0.633,0,0.922-0.479,1.17-1.577C168.098,105.291,169.459,105.291,170.093,105.251z
		 M165.889,104.141c0.653-0.02,0.901-0.25,1.19-1.401c0.271-1.095,0.249-1.707-0.039-1.707
		C166.732,101.029,166.561,101.261,165.889,104.141z"/>
	<path fill="#FFFFFF" d="M179.459,105.251c-0.384,2.384-1.555,4.13-5.01,4.13c-3.053,0-4.165-1.439-3.514-4.973
		c0.635-3.34,2.553-4.973,5.489-4.973c2.745,0,3.857,1.324,3.515,3.205c-0.348,1.92-1.824,2.381-4.856,2.268
		c-0.327,1.553-0.077,1.921,0.575,1.921c0.634,0,0.922-0.479,1.172-1.577C177.463,105.291,178.825,105.291,179.459,105.251z
		 M175.255,104.141c0.653-0.02,0.903-0.25,1.19-1.401c0.27-1.095,0.25-1.707-0.039-1.707
		C176.1,101.029,175.927,101.261,175.255,104.141z"/>
</g>
</svg>
