<?xml version="1.0" encoding="utf-8"?>
<!-- Generator: Adobe Illustrator 16.2.0, SVG Export Plug-In . SVG Version: 6.00 Build 0)  -->
<!DOCTYPE svg PUBLIC "-//W3C//DTD SVG 1.1//EN" "http://www.w3.org/Graphics/SVG/1.1/DTD/svg11.dtd">
<svg version="1.1" id="Layer_1" xmlns="http://www.w3.org/2000/svg" xmlns:xlink="http://www.w3.org/1999/xlink" x="0px" y="0px"
	 width="200px" height="200px" viewBox="0 0 200 200" enable-background="new 0 0 200 200" xml:space="preserve">
<g>
	<path fill="#FFFFFF" d="M54.723,75.341c-0.235-0.062-0.453-0.093-0.657-0.093c-0.383,0-0.713,0.08-0.989,0.24
		c-0.279,0.159-0.506,0.368-0.687,0.626c-0.181,0.258-0.312,0.553-0.398,0.885S51.864,77.665,51.864,78
		c0,0.329,0.042,0.667,0.128,1.016c0.087,0.346,0.218,0.66,0.398,0.941c0.18,0.281,0.405,0.514,0.681,0.697
		c0.272,0.184,0.601,0.275,0.984,0.275c0.107,0,0.221-0.012,0.333-0.035c0.113-0.023,0.224-0.056,0.335-0.095v1.652
		c-0.251,0.103-0.521,0.151-0.81,0.151c-0.633,0-1.191-0.131-1.676-0.393c-0.485-0.262-0.892-0.607-1.225-1.037
		c-0.332-0.43-0.584-0.92-0.756-1.471C50.085,79.154,50,78.591,50,78.014c0-0.548,0.087-1.087,0.263-1.617
		c0.177-0.532,0.431-1.006,0.762-1.425c0.333-0.417,0.734-0.755,1.208-1.012c0.471-0.258,1.006-0.388,1.599-0.388
		c0.288,0,0.585,0.055,0.892,0.164L54.723,75.341L54.723,75.341z"/>
	<path fill="#FFFFFF" d="M67.435,73.677v3.457h1.769v-3.457h1.746v8.835h-1.746v-3.738h-1.769v3.738H65.69v-8.835H67.435z"/>
	<path fill="#FFFFFF" d="M84.119,73.677v8.835h-1.745v-8.835H84.119z"/>
	<path fill="#FFFFFF" d="M100.295,71.295c0.061-0.233,0.093-0.453,0.093-0.655c0-0.383-0.079-0.713-0.24-0.99
		c-0.16-0.277-0.369-0.507-0.626-0.686c-0.258-0.181-0.554-0.312-0.885-0.398c-0.333-0.086-0.666-0.129-1.002-0.129
		c-0.328,0-0.666,0.043-1.014,0.129c-0.346,0.086-0.661,0.218-0.943,0.398c-0.28,0.179-0.514,0.406-0.696,0.68
		c-0.185,0.272-0.276,0.601-0.276,0.984c0,0.109,0.012,0.22,0.035,0.333c0.023,0.114,0.056,0.225,0.095,0.334h-1.652
		c-0.103-0.25-0.152-0.52-0.152-0.809c0-0.632,0.131-1.19,0.394-1.676c0.261-0.483,0.606-0.892,1.036-1.224
		c0.431-0.332,0.92-0.584,1.47-0.755c0.551-0.173,1.115-0.259,1.693-0.259c0.548,0,1.086,0.088,1.617,0.265
		c0.531,0.175,1.006,0.429,1.423,0.76c0.418,0.334,0.757,0.734,1.015,1.208c0.258,0.473,0.387,1.006,0.387,1.599
		c0,0.289-0.055,0.587-0.164,0.891H100.295L100.295,71.295z"/>
	<path fill="#FFFFFF" d="M113.346,73.677l2.12,8.835h-1.862l-0.328-1.486h-1.77l-0.314,1.486h-1.734l2.051-8.835H113.346z
		 M112.572,77.286l-0.198-1.337h-0.022l-0.188,1.337l-0.374,2.354h1.229L112.572,77.286z"/>
	<path fill="#FFFFFF" d="M132.355,77.591v0.691c0,0.469-0.039,0.961-0.111,1.476c-0.074,0.516-0.213,0.986-0.417,1.412
		c-0.202,0.428-0.49,0.779-0.859,1.061c-0.372,0.281-0.854,0.424-1.448,0.424c-0.396,0-0.75-0.067-1.061-0.2
		c-0.309-0.132-0.579-0.312-0.812-0.538c-0.234-0.229-0.433-0.488-0.592-0.786c-0.16-0.297-0.291-0.612-0.394-0.948
		s-0.175-0.678-0.224-1.024c-0.047-0.349-0.07-0.687-0.07-1.015c0-0.508,0.048-1.031,0.142-1.576
		c0.093-0.543,0.261-1.039,0.498-1.486c0.238-0.45,0.56-0.819,0.968-1.108c0.405-0.289,0.92-0.433,1.545-0.433
		c0.672,0,1.229,0.192,1.664,0.579c0.438,0.387,0.752,0.894,0.938,1.518l-1.699,0.656c-0.022-0.108-0.051-0.229-0.082-0.362
		c-0.03-0.134-0.079-0.257-0.146-0.369c-0.066-0.114-0.151-0.209-0.258-0.288c-0.104-0.078-0.24-0.117-0.404-0.117
		c-0.194-0.008-0.363,0.039-0.504,0.14c-0.141,0.103-0.26,0.238-0.356,0.41c-0.099,0.173-0.177,0.368-0.233,0.587
		c-0.06,0.218-0.104,0.438-0.135,0.655c-0.033,0.219-0.053,0.431-0.062,0.634c-0.007,0.203-0.011,0.375-0.011,0.516
		c0,0.228,0.01,0.508,0.029,0.844c0.021,0.336,0.07,0.66,0.157,0.973c0.085,0.312,0.222,0.578,0.403,0.797
		c0.184,0.219,0.437,0.329,0.757,0.329c0.218,0,0.396-0.065,0.53-0.194c0.139-0.129,0.242-0.287,0.316-0.474
		c0.074-0.188,0.125-0.386,0.147-0.593c0.022-0.206,0.032-0.389,0.032-0.545h-1.11v-1.641h2.858v-0.003H132.355z"/>
	<path fill="#FFFFFF" d="M145.236,73.537c0.391,0,0.771,0.082,1.143,0.246s0.704,0.427,0.996,0.79
		c0.293,0.363,0.527,0.834,0.703,1.411c0.176,0.578,0.263,1.281,0.263,2.109s-0.087,1.531-0.263,2.109s-0.41,1.048-0.703,1.411
		c-0.292,0.364-0.625,0.628-0.996,0.792s-0.752,0.246-1.143,0.246s-0.771-0.082-1.145-0.246c-0.371-0.164-0.701-0.428-0.994-0.792
		c-0.293-0.363-0.527-0.833-0.703-1.411c-0.178-0.578-0.265-1.281-0.265-2.109s0.087-1.531,0.265-2.109
		c0.176-0.577,0.41-1.048,0.703-1.411c0.293-0.363,0.625-0.626,0.994-0.79C144.464,73.619,144.846,73.537,145.236,73.537z
		 M143.995,78.096c0,0.115,0.004,0.271,0.012,0.463c0.009,0.191,0.024,0.396,0.054,0.613c0.025,0.221,0.067,0.438,0.121,0.656
		c0.057,0.22,0.127,0.418,0.217,0.598c0.093,0.182,0.203,0.326,0.343,0.44c0.137,0.112,0.302,0.17,0.495,0.17
		c0.195,0,0.361-0.058,0.498-0.17c0.139-0.114,0.25-0.261,0.343-0.44c0.089-0.18,0.159-0.378,0.216-0.598
		c0.057-0.219,0.098-0.438,0.123-0.656s0.044-0.423,0.053-0.613c0.008-0.191,0.014-0.348,0.014-0.463
		c0-0.134-0.006-0.299-0.014-0.492c-0.009-0.196-0.023-0.402-0.053-0.621c-0.027-0.219-0.066-0.438-0.123-0.656
		c-0.057-0.221-0.127-0.414-0.216-0.586c-0.093-0.172-0.204-0.312-0.343-0.422c-0.137-0.11-0.303-0.164-0.498-0.164
		c-0.193,0-0.358,0.054-0.495,0.164c-0.14,0.109-0.25,0.25-0.343,0.422c-0.09,0.172-0.16,0.365-0.217,0.586
		c-0.054,0.22-0.096,0.438-0.121,0.656c-0.027,0.219-0.045,0.425-0.054,0.621C143.999,77.797,143.995,77.962,143.995,78.096z"/>
	<path fill="#FFFFFF" d="M50.315,107.898v-8.834h1.816c0.062,0,0.181-0.004,0.352-0.008c0.172-0.004,0.37,0.012,0.593,0.047
		c0.223,0.035,0.453,0.101,0.695,0.193c0.243,0.096,0.466,0.238,0.669,0.436c0.203,0.193,0.368,0.447,0.499,0.761
		c0.127,0.313,0.192,0.708,0.192,1.184c0,0.415-0.065,0.781-0.192,1.103c-0.131,0.32-0.312,0.593-0.546,0.813
		c-0.234,0.222-0.515,0.394-0.842,0.511c-0.33,0.117-0.697,0.176-1.104,0.176l-0.387-0.022v3.646h-1.745V107.898z M52.062,102.837
		c0.422,0.017,0.749-0.063,0.978-0.239c0.231-0.176,0.347-0.49,0.347-0.945c0-0.317-0.071-0.59-0.217-0.813
		c-0.145-0.221-0.403-0.332-0.779-0.332h-0.328L52.062,102.837L52.062,102.837z"/>
	<path fill="#FFFFFF" d="M64.433,98.925c0.39,0,0.771,0.081,1.143,0.246c0.37,0.163,0.702,0.427,0.995,0.789
		c0.293,0.364,0.527,0.836,0.703,1.412c0.176,0.578,0.264,1.28,0.264,2.108s-0.088,1.531-0.264,2.108
		c-0.176,0.579-0.41,1.05-0.703,1.411c-0.293,0.363-0.625,0.628-0.995,0.792c-0.372,0.164-0.753,0.245-1.143,0.245
		c-0.392,0-0.772-0.081-1.144-0.245s-0.703-0.429-0.996-0.792c-0.292-0.361-0.526-0.832-0.702-1.411
		c-0.177-0.577-0.264-1.28-0.264-2.108s0.087-1.53,0.264-2.108c0.176-0.576,0.41-1.048,0.702-1.412
		c0.293-0.362,0.625-0.626,0.996-0.789C63.66,99.006,64.041,98.925,64.433,98.925z M63.19,103.48c0,0.117,0.004,0.271,0.011,0.463
		c0.009,0.189,0.026,0.396,0.053,0.615c0.027,0.219,0.068,0.438,0.124,0.655c0.054,0.22,0.126,0.417,0.215,0.599
		c0.092,0.182,0.204,0.326,0.341,0.438c0.137,0.112,0.303,0.171,0.499,0.171c0.194,0,0.36-0.059,0.498-0.171
		c0.136-0.112,0.249-0.259,0.34-0.438c0.089-0.182,0.161-0.379,0.216-0.599c0.054-0.218,0.097-0.438,0.123-0.655
		c0.028-0.221,0.046-0.426,0.053-0.615c0.008-0.191,0.012-0.346,0.012-0.463c0-0.133-0.004-0.297-0.012-0.491
		c-0.007-0.196-0.024-0.401-0.053-0.621c-0.026-0.218-0.069-0.438-0.123-0.656c-0.055-0.219-0.127-0.414-0.216-0.586
		c-0.091-0.172-0.204-0.312-0.34-0.422c-0.138-0.111-0.304-0.164-0.498-0.164c-0.196,0-0.362,0.053-0.499,0.164
		c-0.137,0.108-0.249,0.25-0.341,0.422c-0.089,0.172-0.161,0.367-0.215,0.586c-0.056,0.22-0.097,0.438-0.124,0.656
		c-0.026,0.22-0.044,0.425-0.053,0.621C63.194,103.186,63.19,103.35,63.19,103.48z"/>
	<path fill="#FFFFFF" d="M74.694,107.898v-8.834h1.758c0.282,0,0.599,0.021,0.954,0.059c0.355,0.04,0.693,0.141,1.014,0.304
		c0.319,0.165,0.591,0.416,0.808,0.757c0.22,0.34,0.33,0.811,0.33,1.41c0,0.493-0.102,0.938-0.299,1.331
		c-0.2,0.396-0.52,0.716-0.956,0.955l1.535,4.021h-1.841l-1.533-4.077H76.44v4.077h-1.746V107.898z M76.439,102.859l0.306,0.013
		c0.398,0,0.684-0.119,0.854-0.356c0.172-0.238,0.259-0.541,0.259-0.908c0-0.155-0.021-0.307-0.059-0.444
		c-0.04-0.142-0.106-0.263-0.2-0.363c-0.094-0.101-0.216-0.178-0.369-0.229c-0.152-0.051-0.338-0.071-0.557-0.063h-0.234V102.859z"
		/>
	<path fill="#FFFFFF" d="M91.759,99.064v1.64h-1.383v7.194H88.63v-7.194h-1.371v-1.64H91.759z"/>
	<path fill="#FFFFFF" d="M103.113,99.064v1.64h-1.781v1.887h1.607v1.64h-1.607v3.67h-1.744v-8.834L103.113,99.064L103.113,99.064z"
		/>
	<path fill="#FFFFFF" d="M112.461,98.925c0.393,0,0.771,0.081,1.143,0.246c0.373,0.163,0.703,0.427,0.996,0.789
		c0.293,0.364,0.527,0.836,0.702,1.412c0.177,0.578,0.265,1.28,0.265,2.108s-0.088,1.531-0.265,2.108
		c-0.175,0.579-0.409,1.05-0.702,1.411c-0.293,0.363-0.623,0.628-0.996,0.792c-0.371,0.164-0.75,0.245-1.143,0.245
		c-0.391,0-0.771-0.081-1.143-0.245c-0.373-0.164-0.702-0.429-0.995-0.792c-0.294-0.361-0.526-0.832-0.704-1.411
		c-0.176-0.577-0.264-1.28-0.264-2.108s0.088-1.53,0.264-2.108c0.178-0.576,0.41-1.048,0.704-1.412
		c0.293-0.362,0.625-0.626,0.995-0.789C111.688,99.006,112.07,98.925,112.461,98.925z M111.219,103.48
		c0,0.117,0.004,0.271,0.012,0.463c0.008,0.189,0.025,0.396,0.056,0.615c0.024,0.219,0.065,0.438,0.123,0.655
		c0.055,0.22,0.127,0.417,0.217,0.599c0.089,0.182,0.202,0.326,0.339,0.438c0.139,0.112,0.305,0.171,0.498,0.171
		c0.195,0,0.362-0.059,0.497-0.171c0.14-0.112,0.251-0.259,0.341-0.438c0.092-0.182,0.162-0.379,0.219-0.599
		c0.056-0.218,0.094-0.438,0.123-0.655c0.025-0.221,0.045-0.426,0.051-0.615c0.01-0.191,0.014-0.346,0.014-0.463
		c0-0.133-0.004-0.297-0.014-0.491c-0.006-0.196-0.023-0.401-0.051-0.621c-0.029-0.218-0.067-0.438-0.123-0.656
		c-0.057-0.219-0.127-0.414-0.219-0.586c-0.09-0.172-0.201-0.312-0.341-0.422c-0.135-0.111-0.302-0.164-0.497-0.164
		c-0.193,0-0.359,0.053-0.498,0.164c-0.137,0.108-0.25,0.25-0.339,0.422c-0.09,0.172-0.162,0.367-0.217,0.586
		c-0.058,0.22-0.099,0.438-0.123,0.656c-0.028,0.22-0.048,0.425-0.056,0.621S111.219,103.35,111.219,103.48z"/>
	<path fill="#FFFFFF" d="M125.245,99.402v7.195h1.827v1.639h-3.573v-8.832h1.746V99.402z"/>
	<path fill="#FFFFFF" d="M136.359,99.064v8.834h-1.746v-8.834H136.359z"/>
	<path fill="#FFFFFF" d="M146.896,98.925c0.391,0,0.771,0.081,1.143,0.246c0.369,0.163,0.702,0.427,0.995,0.789
		c0.293,0.364,0.526,0.836,0.702,1.412c0.178,0.578,0.265,1.28,0.265,2.108s-0.087,1.531-0.265,2.108
		c-0.176,0.579-0.409,1.05-0.702,1.411c-0.293,0.363-0.626,0.628-0.995,0.792c-0.372,0.164-0.752,0.245-1.143,0.245
		c-0.393,0-0.771-0.081-1.146-0.245c-0.37-0.164-0.702-0.429-0.997-0.792c-0.29-0.361-0.523-0.832-0.699-1.411
		c-0.178-0.577-0.266-1.28-0.266-2.108s0.088-1.53,0.266-2.108c0.176-0.576,0.409-1.048,0.699-1.412
		c0.295-0.362,0.627-0.626,0.997-0.789C146.124,99.006,146.505,98.925,146.896,98.925z M145.652,103.48
		c0,0.117,0.005,0.271,0.013,0.463c0.007,0.189,0.024,0.396,0.051,0.615c0.028,0.219,0.069,0.438,0.125,0.655
		c0.054,0.22,0.125,0.417,0.216,0.599c0.092,0.182,0.204,0.326,0.34,0.438c0.139,0.112,0.304,0.171,0.5,0.171
		c0.194,0,0.359-0.059,0.498-0.171c0.138-0.112,0.25-0.259,0.338-0.438c0.09-0.182,0.162-0.379,0.219-0.599
		c0.055-0.218,0.097-0.438,0.121-0.655c0.027-0.221,0.047-0.426,0.056-0.615c0.007-0.191,0.013-0.346,0.013-0.463
		c0-0.133-0.006-0.297-0.013-0.491c-0.009-0.196-0.024-0.401-0.056-0.621c-0.024-0.218-0.066-0.438-0.121-0.656
		c-0.057-0.218-0.129-0.414-0.219-0.586c-0.088-0.172-0.2-0.312-0.338-0.422c-0.139-0.111-0.304-0.164-0.498-0.164
		c-0.196,0-0.361,0.053-0.5,0.164c-0.136,0.108-0.248,0.25-0.34,0.422c-0.091,0.172-0.162,0.367-0.216,0.586
		c-0.056,0.22-0.097,0.438-0.125,0.656c-0.024,0.22-0.044,0.425-0.051,0.621C145.657,103.186,145.652,103.35,145.652,103.48z"/>
	<path fill="#FFFFFF" d="M53.948,126.443c-0.18-0.156-0.374-0.289-0.586-0.398c-0.21-0.109-0.438-0.164-0.68-0.164
		c-0.272,0-0.488,0.076-0.645,0.229c-0.155,0.152-0.234,0.365-0.234,0.642c0,0.242,0.067,0.45,0.199,0.625
		c0.133,0.176,0.297,0.347,0.493,0.505c0.194,0.159,0.407,0.321,0.638,0.479c0.231,0.16,0.443,0.347,0.638,0.558
		c0.196,0.213,0.361,0.458,0.494,0.735c0.132,0.283,0.199,0.623,0.199,1.021c0,0.391-0.057,0.754-0.164,1.09
		c-0.11,0.336-0.274,0.629-0.492,0.873c-0.219,0.246-0.486,0.439-0.803,0.579c-0.317,0.144-0.679,0.212-1.084,0.212
		c-0.25,0-0.513-0.037-0.786-0.111c-0.273-0.072-0.511-0.186-0.714-0.334v-1.664c0.203,0.143,0.409,0.256,0.621,0.343
		c0.21,0.085,0.443,0.128,0.702,0.128c0.282,0,0.52-0.086,0.714-0.26c0.196-0.172,0.294-0.404,0.294-0.701
		c0-0.171-0.031-0.317-0.094-0.439c-0.062-0.119-0.142-0.229-0.239-0.326c-0.097-0.1-0.209-0.188-0.328-0.271
		c-0.122-0.082-0.244-0.166-0.371-0.252c-0.248-0.171-0.477-0.346-0.678-0.516c-0.204-0.172-0.376-0.36-0.516-0.569
		c-0.141-0.206-0.247-0.437-0.322-0.687c-0.075-0.248-0.112-0.533-0.112-0.854c0-0.354,0.052-0.686,0.153-0.996
		s0.248-0.589,0.439-0.826c0.191-0.236,0.432-0.428,0.72-0.568c0.291-0.14,0.622-0.209,0.997-0.209c0.28,0,0.548,0.037,0.803,0.109
		c0.253,0.073,0.501,0.182,0.743,0.322v1.697H53.948L53.948,126.443z"/>
	<path fill="#FFFFFF" d="M72.941,126.115c-0.233-0.062-0.453-0.094-0.657-0.094c-0.382,0-0.712,0.08-0.989,0.238
		c-0.277,0.161-0.506,0.368-0.686,0.626c-0.181,0.261-0.312,0.556-0.398,0.886c-0.085,0.334-0.129,0.668-0.129,1.002
		c0,0.33,0.044,0.668,0.129,1.015c0.086,0.347,0.218,0.662,0.398,0.942c0.18,0.283,0.407,0.515,0.68,0.695
		c0.272,0.186,0.602,0.276,0.983,0.276c0.111,0,0.221-0.013,0.335-0.035c0.114-0.022,0.224-0.056,0.334-0.095v1.65
		c-0.249,0.104-0.52,0.153-0.81,0.153c-0.631,0-1.19-0.131-1.675-0.394c-0.484-0.262-0.893-0.605-1.225-1.035
		c-0.331-0.43-0.583-0.922-0.755-1.473c-0.173-0.551-0.258-1.113-0.258-1.691c0-0.547,0.087-1.085,0.264-1.617
		c0.176-0.531,0.43-1.006,0.761-1.425c0.332-0.418,0.734-0.755,1.207-1.013c0.474-0.259,1.006-0.389,1.599-0.389
		c0.29,0,0.588,0.057,0.892,0.164V126.115z"/>
	<path fill="#FFFFFF" d="M88.624,124.451v3.457h1.77v-3.457h1.745v8.834h-1.745v-3.736h-1.77v3.736h-1.745v-8.834H88.624z"/>
	<path fill="#FFFFFF" d="M109.355,124.311c0.393,0,0.771,0.084,1.144,0.248c0.371,0.162,0.703,0.426,0.994,0.791
		c0.295,0.361,0.528,0.832,0.704,1.41c0.177,0.577,0.264,1.28,0.264,2.109c0,0.826-0.087,1.529-0.264,2.109
		c-0.176,0.576-0.409,1.047-0.704,1.412c-0.291,0.36-0.623,0.625-0.994,0.791c-0.373,0.161-0.751,0.243-1.144,0.243
		c-0.392,0-0.771-0.082-1.144-0.243c-0.371-0.166-0.704-0.431-0.997-0.791c-0.292-0.365-0.525-0.836-0.701-1.412
		c-0.177-0.58-0.264-1.283-0.264-2.109c0-0.829,0.087-1.532,0.264-2.109c0.176-0.578,0.409-1.049,0.701-1.41
		c0.293-0.365,0.626-0.629,0.997-0.791C108.584,124.395,108.966,124.311,109.355,124.311z M108.115,128.869
		c0,0.115,0.003,0.271,0.012,0.462c0.007,0.192,0.023,0.396,0.051,0.614c0.028,0.221,0.068,0.438,0.124,0.656
		s0.128,0.418,0.216,0.599c0.092,0.18,0.205,0.325,0.342,0.44c0.138,0.11,0.304,0.168,0.498,0.168c0.195,0,0.359-0.058,0.496-0.168
		c0.141-0.115,0.25-0.263,0.34-0.44c0.091-0.181,0.162-0.38,0.22-0.599c0.055-0.22,0.096-0.438,0.123-0.656
		c0.024-0.219,0.044-0.422,0.052-0.614c0.01-0.19,0.014-0.347,0.014-0.462c0-0.135-0.004-0.297-0.014-0.492
		c-0.008-0.195-0.023-0.4-0.052-0.622c-0.027-0.218-0.068-0.437-0.123-0.655c-0.058-0.22-0.129-0.412-0.22-0.584
		c-0.09-0.174-0.199-0.312-0.34-0.424c-0.137-0.109-0.301-0.164-0.496-0.164c-0.194,0-0.36,0.055-0.498,0.164
		c-0.137,0.109-0.25,0.25-0.342,0.424c-0.088,0.172-0.16,0.364-0.216,0.584c-0.056,0.219-0.096,0.438-0.124,0.655
		c-0.027,0.222-0.044,0.427-0.051,0.622C108.118,128.572,108.115,128.734,108.115,128.869z"/>
	<path fill="#FFFFFF" d="M129.361,124.311c0.392,0,0.771,0.084,1.144,0.248c0.37,0.162,0.702,0.426,0.995,0.791
		c0.293,0.361,0.527,0.832,0.704,1.41c0.175,0.577,0.262,1.28,0.262,2.109c0,0.826-0.087,1.529-0.262,2.109
		c-0.177,0.576-0.411,1.047-0.704,1.412c-0.293,0.36-0.625,0.625-0.995,0.791c-0.373,0.161-0.752,0.243-1.144,0.243
		c-0.391,0-0.771-0.082-1.145-0.243c-0.369-0.166-0.701-0.431-0.994-0.791c-0.293-0.365-0.527-0.836-0.703-1.412
		c-0.177-0.58-0.265-1.283-0.265-2.109c0-0.829,0.088-1.532,0.265-2.109c0.176-0.578,0.41-1.049,0.703-1.41
		c0.293-0.365,0.625-0.629,0.994-0.791C128.59,124.395,128.971,124.311,129.361,124.311z M128.12,128.869
		c0,0.115,0.004,0.271,0.012,0.462c0.007,0.192,0.024,0.396,0.054,0.614c0.026,0.221,0.065,0.438,0.123,0.656
		c0.053,0.219,0.127,0.418,0.215,0.599c0.093,0.18,0.203,0.325,0.343,0.44c0.136,0.11,0.302,0.168,0.497,0.168
		c0.193,0,0.359-0.058,0.498-0.168c0.138-0.115,0.248-0.263,0.339-0.44c0.091-0.181,0.161-0.38,0.218-0.599
		c0.057-0.22,0.098-0.438,0.123-0.656c0.027-0.219,0.045-0.422,0.053-0.614c0.008-0.19,0.012-0.347,0.012-0.462
		c0-0.135-0.004-0.297-0.012-0.492s-0.023-0.4-0.053-0.622c-0.025-0.218-0.066-0.437-0.123-0.655
		c-0.057-0.22-0.127-0.412-0.218-0.584c-0.091-0.174-0.201-0.312-0.339-0.424c-0.139-0.109-0.305-0.164-0.498-0.164
		c-0.195,0-0.361,0.055-0.497,0.164c-0.14,0.109-0.25,0.25-0.343,0.424c-0.088,0.172-0.162,0.364-0.215,0.584
		c-0.058,0.219-0.097,0.438-0.123,0.655c-0.027,0.222-0.047,0.427-0.054,0.622C128.124,128.572,128.12,128.734,128.12,128.869z"/>
	<path fill="#FFFFFF" d="M147.325,124.451v7.193h1.827v1.641h-3.574v-8.834H147.325z"/>
</g>
</svg>
