<?xml version="1.0" encoding="utf-8"?>
<!-- Generator: Adobe Illustrator 16.2.0, SVG Export Plug-In . SVG Version: 6.00 Build 0)  -->
<!DOCTYPE svg PUBLIC "-//W3C//DTD SVG 1.1//EN" "http://www.w3.org/Graphics/SVG/1.1/DTD/svg11.dtd">
<svg version="1.1" id="Layer_1" xmlns="http://www.w3.org/2000/svg" xmlns:xlink="http://www.w3.org/1999/xlink" x="0px" y="0px"
	 width="200px" height="200px" viewBox="0 0 200 200" enable-background="new 0 0 200 200" xml:space="preserve">
<g>
	<path fill="#FFFFFF" d="M56.627,111.489l-0.009-0.039l0.001-0.037c0.01-0.354,0.018-0.706,0.007-1.053
		c-0.011-0.346-0.048-0.688-0.091-1.043c-0.034-0.28-0.065-0.568-0.095-0.85c-0.211-0.028,0.065-0.133-0.063-0.095l-0.005-0.023
		l-0.004-0.028l-0.005-0.04l-0.007-0.071c-0.016-0.182-0.028-0.363-0.038-0.542c-0.074-1.435-0.12-2.859-0.153-4.292
		c-0.022-1.436-0.014-2.862-0.007-4.292l0.009-2.141c0-0.711-0.018-1.419-0.058-2.127c-0.039-0.708-0.102-1.418-0.144-2.137
		c-0.043-0.719-0.058-1.441-0.042-2.161c0.015-0.722,0.06-1.437,0.098-2.149c0.04-0.714,0.084-1.427,0.132-2.141l0.311-4.274
		c0.101-1.423,0.185-2.847,0.252-4.271l0.01-0.214l0.212-0.007c0.971-0.035,1.925,0.064,2.865,0.125
		c0.471,0.03,0.937,0.052,1.404,0.042c0.473-0.005,0.944-0.019,1.417-0.036c1.891-0.071,3.785-0.211,5.69-0.247
		c0.952-0.017,1.908-0.008,2.862,0.053c0.953,0.071,1.889,0.142,2.837,0.186c1.891,0.094,3.785,0.127,5.681,0.137
		c3.791,0.019,7.59-0.045,11.387,0.071c3.796,0.1,7.588,0.274,11.379,0.433c3.791,0.158,7.582,0.299,11.374,0.327l11.383,0.021
		l11.384,0.022c1.898,0.01,3.795,0.024,5.688-0.032c0.476-0.013,0.945-0.036,1.422-0.054c0.312-0.008,0.622,0,0.932,0.013
		c-3.149-2.876-8.312-6.214-11.176-6.227c-12.39-0.062-29.035,0.376-40.874,0.005c-13.917-0.435-28.09-0.009-41.919,0.27
		c-0.465,4.084-0.486,6.846-0.186,10.172c0.287,3.183-0.003,6.537,0,9.727c0.006,5.378-0.259,3.181-0.269,8.578
		c-0.013,6.004-1.634,4.521,4.074,9.792c1.127,1.039,1.448,1.891,2.664,2.634l-0.002-0.021
		C56.887,112.793,56.774,112.128,56.627,111.489z"/>
	<path fill="#FFFFFF" d="M128.087,92.471c0.152-0.468-0.045-1.186,0.034-1.656c-1.09-0.301-2.116-0.151-3.034-0.345
		c-0.156-0.032-0.427-0.054-0.656,0.034c-0.682-0.2-1.37-0.138-2-0.138c-0.35-0.097-0.963-0.093-1.448-0.103
		c-0.537-0.012-1.015,0.062-1.586-0.034c-1.832,0.066-3.391,0.012-5.206,0c-1.845-0.015-3.664-0.116-5.207,0
		c-0.082,1.003,0.102,2.158,0.035,3.241c-0.047,0.761-0.296,1.52,0.034,1.965c2.549,0.141,5.439-0.032,7.896,0.311
		c-0.149,0.449-0.484,0.845-0.793,1.241c-0.324,0.417-0.655,0.836-1,1.241c-0.34,0.399-0.722,0.79-1.034,1.206
		c-0.329,0.438-0.688,0.784-1.034,1.173c-0.847,0.946-1.661,1.849-2.518,2.896c-0.431,0.527-1.116,1.255-1.379,1.586
		c-0.242,0.304-0.982,1.179-1.035,1.482c-0.089,0.517,0.106,1.143,0.138,1.553c5.909,0.577,12.963,0.292,19.516,0.137
		c-0.01-1.658,0.005-3.15,0.035-4.62c-1.89-0.385-3.59-0.433-5.034-0.481c-0.93-0.033-1.527-0.069-2.517-0.104
		c-0.304-0.01-0.607-0.01-0.897-0.104c2.419-3.136,4.853-6.301,7.552-9.206C127.279,93.391,127.966,92.836,128.087,92.471z"/>
	<path fill="#FFFFFF" d="M83.481,90.574c0.018-2.145-0.009-4.244-0.138-6.242c-0.915-0.016-1.687-0.092-2.448-0.103
		c-1.708-0.025-4.859,0.041-7-0.139c-2.403,0.009-4.038,0.017-6.396,0.104c-2.561,0.095-3.423-0.15-5.692-0.034
		c0.006,7.926,0.238,16.173,0.241,24.274c1.643,0.116,2.122,0.035,4.105,0.035c6.177,0,11.03,0.188,17.155-0.208
		c-0.032-2.169,0.057-4.218,0.104-6.31c-2.292-0.209-4.736-0.1-6.689-0.069c-1.062,0.018-2.038-0.095-3.138-0.068
		c-0.943,0.022-1.928-0.06-2.793-0.207c-0.017-1.005,0.013-1.964,0.139-2.828c2.562,0.193,5.55,0.118,7.965-0.31
		c0.158-1.38,0.133-3.016,0.103-4.482c-1.652-0.31-2.858-0.189-4.206-0.275c-1.086-0.069-2.904-0.068-4.069-0.069
		c0.044-0.922,0.026-1.904,0.173-2.725C75.312,90.924,79.234,90.84,83.481,90.574z"/>
	<path fill="#FFFFFF" d="M106.795,104.056c-0.631,0.054-0.93,0.499-1.482,0.035c-0.074-0.231-0.217-0.383-0.242-0.587
		c-0.397-3.362,0.808-7.745-0.656-10.274c-0.846-0.742-1.731-1.442-2.551-2.207c-1.055-0.525-2.301-0.83-3.759-1.069
		c-1.603-0.262-3.282-0.127-4.793-0.035c-0.846,0.052-1.933,0.253-2.551,0.38c-0.38,0.078-0.836,0.298-1.276,0.517
		c-0.416,0.208-0.875,0.416-1.207,0.622c-0.294,0.18-0.566,0.582-0.793,0.861c-0.469,0.577-0.653,0.956-0.965,1.655
		c-0.405,0.905-0.593,1.87-0.208,2.931c2.434,0.003,4.895-0.021,7.241,0.069c0.096-0.469,0.357-1.008,0.448-1.448
		c0.1-0.487,0.042-0.491,0.414-0.725c0.502-0.316,1.021-0.327,1.552-0.414c0.576,0.688,0.508,2.333,0.448,3.345
		c-0.211-0.081-0.168,0.228-0.311,0.311c-1.288,0.202-2.335,0.194-3.517,0.552c0.005-0.096,0.166-0.11,0.069-0.207
		c-1.6,0.364-3.837,1.015-5.55,1.793c-0.811,0.715-1.774,1.222-2.07,2.552c-0.079,0.358-0.181,1.202-0.137,1.552
		c0.057,0.458,0.155,0.869,0.382,1.338c0.217,0.444,0.623,1.032,0.882,1.338c0.242,0.285,0.688,0.622,1.078,0.883
		c0.369,0.246,0.846,0.461,1.175,0.58c0.674,0.24,1.77,0.136,2.517,0.102c0.921-0.04,1.606-0.003,2.413-0.102
		c0.055-0.009,0.127-0.024,0.173-0.036c1.826-0.447,3.201-1.662,3.999-2.861c0.368,0.714,0.868,1.294,1.311,1.931
		c0.324,0.23,0.68,0.395,1.069,0.586c0.357,0.177,0.723,0.478,1.138,0.518c0.378,0.036,0.848,0.001,1.241,0
		c0.46-0.001,1.012,0.017,1.414-0.068c0.227-0.049,0.51-0.253,0.759-0.38c0.762-0.388,1.631-0.801,2.345-1.138
		C106.704,106.025,106.833,104.921,106.795,104.056z M96.727,103.16c-0.175,0.284-0.334,0.584-0.482,0.896
		c-0.233-0.028-0.435,0.161-0.689,0.241c-0.343,0.108-0.745,0.096-1.069,0.241c-0.308-0.096-0.628-0.359-0.896-0.379
		c-0.177-1.017,0.004-2.122,0.586-2.758c0.51-0.559,1.467-0.681,2.242-0.932C96.521,101.323,96.787,102.058,96.727,103.16z"/>
	<path fill="#FFFFFF" d="M139.441,108.159c0.514-1.479-0.704-1.817-1.858-2.119c0.036-2.76,0.167-5.524,0.167-8.364
		c0-4.469,0.167-9.246-0.103-13.585c-3.11-0.3-4.998-0.386-7.668-0.276c0.003,2.045-0.024,4.059-0.035,6.069
		c-0.005,1.005-0.138,2.018-0.138,3.034c0,1.062,0.034,2.123,0.034,3.207c0,2.083-0.133,4.021,0.035,6.068
		c0.166,2.022,0.038,4.125,0.242,6.104c2.701,0.21,4.668-0.005,7.443-0.035v0.001C138.177,108.295,138.821,108.169,139.441,108.159z
		"/>
	<path fill="#FFFFFF" d="M149.666,98.302c-0.006-5.38,0.512-3.187,0.27-8.579c-0.27-5.981,0.452-5.362-4.075-9.79
		c-0.471-0.461-0.802-0.857-1.124-1.217c-0.34-0.015-0.679-0.022-1.017-0.013c-0.056,0.003-0.114,0.006-0.17,0.008
		c0.036,0.181,0.076,0.36,0.119,0.536l0.012,0.054l-0.001,0.06c-0.007,0.353-0.009,0.703,0.006,1.043
		c0.014,0.34,0.056,0.674,0.102,1.03l0.068,0.533l0.032,0.269c0.291,0.121-0.118,0.098,0.074,0.124l0.006,0.032l0.005,0.033
		l0.004,0.044l0.009,0.073c0.019,0.186,0.031,0.369,0.043,0.55c0.084,1.438,0.139,2.86,0.184,4.298
		c0.031,1.44,0.031,2.866,0.033,4.296l0.004,2.14c0.011,0.707,0.034,1.408,0.082,2.111c0.046,0.702,0.117,1.41,0.166,2.135
		c0.051,0.724,0.073,1.458,0.066,2.186c-0.003,0.363-0.015,0.728-0.03,1.089l-0.046,1.073c-0.033,0.716-0.069,1.431-0.111,2.146
		l-0.267,4.277c-0.086,1.422-0.155,2.842-0.208,4.264l-0.023,0.635l-0.646,0.029c-1.014,0.046-1.985-0.052-2.914-0.104
		c-0.466-0.027-0.913-0.044-1.366-0.032c-0.471,0.009-0.933,0.024-1.405,0.045c-1.877,0.083-3.774,0.235-5.699,0.284
		c-0.963,0.023-1.933,0.021-2.908-0.036l-1.422-0.094c-0.468-0.027-0.938-0.053-1.407-0.072c-1.879-0.081-3.766-0.102-5.655-0.1
		c-3.779,0.004-7.591,0.102-11.403-0.003c-3.805-0.082-7.601-0.241-11.391-0.383c-3.79-0.141-7.572-0.264-11.349-0.274
		l-11.379,0.027l-11.387,0.009c-1.899-0.003-3.786-0.012-5.658,0.049l-0.405,0.016c0.013,0.095,0.026,0.191,0.036,0.287
		c0.015,0.131,0.026,0.263,0.036,0.395c3.136,2.41,7.069,4.691,7.682,4.691c6.932,0,15.646-0.117,24.051-0.156
		c-0.349,1.622-0.715,3.274-1.173,4.854c-0.214,0.738-0.491,1.515-0.784,2.337c-0.379,1.06-0.765,2.146-1.033,3.201
		c-1.891,0.048-4.002,0.162-4.558,0.906c-0.138,0.187-0.174,0.402-0.108,0.644c0.205,0.746,1.078,0.949,2.066,0.949
		c0.691,0,1.438-0.099,2.055-0.181c0.329-0.043,0.613-0.081,0.819-0.093c1.499-0.089,2.646-0.242,4.066-0.544
		c0.119-0.022,0.233-0.061,0.335-0.136c0.43-0.315,0.668-1.138,0.82-2.838c0.236-2.617,0.62-4.982,1.026-7.487
		c0.087-0.536,0.174-1.079,0.261-1.623c1.95-0.003,3.866,0.001,5.719,0.013c-0.043,0.669-0.079,1.343-0.109,2.003
		c-0.062,1.354-0.133,2.743-0.299,4.044c-0.294,0.037-0.584,0.071-0.867,0.104c-0.244,0.027-1.542,0.3-1.801,0.939
		c-0.095,0.235-0.039,0.484,0.173,0.743c0.126,0.155,0.372,0.201,0.65,0.201c0.222,0,0.465-0.03,0.684-0.057
		c0.155-0.019,0.287-0.034,0.376-0.034c0.714-0.002,1.376-0.019,2.024-0.054c0.846-0.045,1.716-0.187,2.347-0.907l0.017-0.151h0.001
		l0.001-0.061c0.017-1.49,0.068-2.99,0.12-4.442c0.026-0.754,0.051-1.523,0.073-2.295c1.89,0.026,3.691,0.063,5.365,0.115
		c1.237,0.039,2.478,0.07,3.719,0.103c0.077,0.271,0.145,0.53,0.199,0.773c0.224,0.996,0.375,2.065,0.521,3.102
		c0.076,0.54,0.154,1.098,0.243,1.64c0.295,1.821,0.375,3.75,0.452,5.614c0.035,0.863,0.071,1.756,0.129,2.632l0.005,0.083h0.01
		c0.116,0.646,1.149,0.66,1.77,0.668c0.1,0,0.188,0.001,0.26,0.003c0.662,0.034,1.338,0.134,1.996,0.229
		c0.522,0.077,1.064,0.157,1.593,0.201c0.382,0.032,0.799,0.09,1.243,0.149c0.784,0.106,1.627,0.221,2.431,0.221
		c0.616,0,1.21-0.067,1.734-0.258c0.499-0.18,0.734-0.356,0.787-0.594c0.048-0.213-0.063-0.446-0.351-0.736
		c-0.495-0.497-1.391-0.529-2.18-0.557c-0.306-0.012-0.593-0.021-0.832-0.057c-0.336-0.051-0.681-0.08-1.015-0.108
		c-0.522-0.046-1.062-0.091-1.576-0.218c-0.128-0.032-0.251-0.073-0.374-0.118c-0.109-1.174-0.397-2.353-0.68-3.499
		c-0.18-0.724-0.348-1.405-0.469-2.073c-0.193-1.066-0.356-2.175-0.516-3.246c-0.156-1.061-0.317-2.157-0.509-3.216l-0.095-0.529
		c11.157,0.215,22.397,0.181,33.422-0.041c0.463-4.084,0.486-7.283,0.185-10.609C149.379,104.846,149.67,101.489,149.666,98.302z"/>
	<path fill="#FFFFFF" d="M138.429,84.047l-0.143,0.387h-0.239v0.394h0.214v0.539c0,0.307,0.23,0.479,0.523,0.479
		c0.137,0,0.401-0.048,0.482-0.137v-0.361c-0.091,0.071-0.327,0.066-0.327-0.127v-0.394h0.327v-0.394h-0.327v-0.387H138.429z"/>
	<path fill="#FFFFFF" d="M141.983,85.815v-0.953c0-0.261-0.164-0.457-0.402-0.457c-0.259,0-0.437,0.16-0.528,0.328
		c-0.042-0.198-0.189-0.328-0.39-0.328c-0.251,0-0.427,0.16-0.518,0.325v-0.297h-0.65v1.382h0.65v-0.749
		c0.046-0.173,0.12-0.225,0.185-0.225c0.077,0,0.082,0.11,0.082,0.229v0.744h0.653v-0.749c0.046-0.173,0.114-0.225,0.186-0.225
		c0.074,0,0.082,0.11,0.082,0.229v0.744H141.983z"/>
</g>
</svg>
