<?xml version="1.0" encoding="utf-8"?>
<!-- Generator: Adobe Illustrator 16.2.0, SVG Export Plug-In . SVG Version: 6.00 Build 0)  -->
<!DOCTYPE svg PUBLIC "-//W3C//DTD SVG 1.1//EN" "http://www.w3.org/Graphics/SVG/1.1/DTD/svg11.dtd">
<svg version="1.1" id="Layer_1" xmlns="http://www.w3.org/2000/svg" xmlns:xlink="http://www.w3.org/1999/xlink" x="0px" y="0px"
	 width="200px" height="200px" viewBox="0 0 200 200" enable-background="new 0 0 200 200" xml:space="preserve">
<g>
	<g>
		<g>
			<g>
				<g>
					<path fill="#FFFFFF" d="M149.904,97.75c0.004-0.342-0.045-0.688-0.156-1.031c-0.553-1.699-2.376-2.63-4.076-2.078h-0.001
						l-0.003-0.01l-13.096,4.254l0.003,0.006l-0.046,0.012c-1.059,0.345-1.818,1.183-2.107,2.176l-0.014,0.005
						c-0.404,2.278-2.018,4.267-4.371,5.028c-3.4,1.104-7.051-0.756-8.155-4.154s0.755-7.048,4.156-8.154
						c2.328-0.756,4.774-0.119,6.438,1.448l0.006-0.003c0.824,0.674,1.961,0.928,3.047,0.575l0.043-0.017l0.002,0.002l13.08-4.252
						l0.015-0.002c1.7-0.554,2.629-2.38,2.076-4.078c-0.106-0.334-0.269-0.639-0.466-0.908
						c-6.086-10.133-18.545-15.117-30.269-11.309c-3.864,1.256-7.231,3.333-9.976,5.975c1.438,1.466,2.715,3.104,3.794,4.894
						c0.25,0.351,0.442,0.733,0.573,1.138c0.716,2.195-0.49,4.562-2.688,5.276l-0.04,0.013l-9.232,3
						c-0.084,0.485-0.152,0.977-0.209,1.469l9.894-3.215c0,0,0.58-0.145,0.979-0.184c0.268-0.025,0.213-0.014,0.316-0.014
						c1.819,0,3.419,1.164,3.98,2.896c0.135,0.414,0.201,0.847,0.201,1.287c0.504,5.942-1.023,11.978-4.305,16.995
						c-0.935,1.429-2.005,2.756-3.186,3.973c6.686,6.356,16.552,8.942,25.939,5.893C143.771,120.85,150.919,109.514,149.904,97.75z"
						/>
				</g>
			</g>
		</g>
		<g>
			<path fill="none" d="M69.413,80.748V79.09c0-1.779-1.456-3.234-3.235-3.234H53.235c-1.779,0-3.235,1.455-3.235,3.234v42.062
				c0,1.779,1.456,3.233,3.235,3.233h12.942c1.779,0,3.235-1.454,3.235-3.233v-1.819"/>
			<path fill="#FFFFFF" d="M66.178,75.855H53.235c-1.779,0-3.235,1.455-3.235,3.234v42.062c0,1.779,1.456,3.234,3.235,3.234h12.942
				c1.779,0,3.235-1.455,3.235-3.234v-1.819V80.748V79.09C69.413,77.311,67.957,75.855,66.178,75.855z"/>
		</g>
	</g>
	<path fill="#FFFFFF" d="M112.66,97.834c0.004-0.342-0.045-0.689-0.156-1.031c-0.552-1.699-2.376-2.631-4.077-2.078l-13.098,4.244
		l0.001,0.004l-0.044,0.014c-1.06,0.345-1.819,1.182-2.108,2.175l-0.015,0.005c-0.403,2.277-2.018,4.266-4.371,5.029
		c-3.399,1.104-7.051-0.756-8.154-4.154c-1.104-3.398,0.755-7.048,4.155-8.154c2.329-0.756,4.775-0.121,6.439,1.447l0.006-0.002
		c0.824,0.672,1.961,0.928,3.047,0.574l0.044-0.016l0,0l13.081-4.25l0.014-0.004c1.7-0.553,2.629-2.378,2.077-4.076
		c-0.108-0.334-0.269-0.639-0.465-0.908c-6.087-10.133-18.547-15.116-30.269-11.309c-3.157,1.026-5.978,2.604-8.403,4.586v40.217
		c6.611,5.392,15.736,7.422,24.452,4.59C106.525,120.936,113.675,109.598,112.66,97.834z"/>
</g>
</svg>
