<?xml version="1.0" encoding="utf-8"?>
<!-- Generator: Adobe Illustrator 16.2.0, SVG Export Plug-In . SVG Version: 6.00 Build 0)  -->
<!DOCTYPE svg PUBLIC "-//W3C//DTD SVG 1.1//EN" "http://www.w3.org/Graphics/SVG/1.1/DTD/svg11.dtd">
<svg version="1.1" id="Layer_1" xmlns="http://www.w3.org/2000/svg" xmlns:xlink="http://www.w3.org/1999/xlink" x="0px" y="0px"
	 width="200px" height="200px" viewBox="0 0 200 200" enable-background="new 0 0 200 200" xml:space="preserve">
<g>
	<path fill="#FFFFFF" d="M145.312,92.932c-4.566,0-8.021,4.381-8.58,5.062c-0.481,0.59-3.262,3.805-3.967,7.438l-3.509,3.664
		c-0.926,0.059-2.883-0.188-2.515-1.234c0.803-2.282,10.674-19.555,13.943-24.43c0.369-0.555,0.924-1.174-0.062-1.108
		c-0.987,0.062-2.877-0.123-3.308-0.123c-0.432,0-1.368,0.896-2.541,2.809c-1.172,1.911-5.194,9.099-5.565,9.593
		c-0.37,0.491-0.493,1.172-1.356,0.366c-0.863-0.801-1.295-1.849-3.395-1.849c-2.159,0-5.921,2.099-9.129,7.837
		c-0.829,1.479-1.418,2.998-1.775,4.44l-0.039,0.086l-3.293,3.621c-0.869,0.108-2.293-0.028-2.293-1.242
		c0-1.229,6.188-11.51,6.377-11.942c0.184-0.435,0.799-1.11-0.312-1.172c-1.108-0.062-1.888-0.312-2.345-0.371
		c-0.489-0.062-0.943-0.271-1.563,0.347c-1.083,1.086-1.11,0.309-1.665-0.185c-0.553-0.494-1.05-1.543-3.271-1.543
		c-2.034,0-5.861,2.405-8.883,7.403c-1.271,2.134-2.07,4.668-2.222,6.91l0,0l-2.153,2.588c-0.619-0.02-1.567-0.312-2.155-0.693
		c-1.212-0.783-0.439-2.203-0.069-3.008c0.369-0.799,8.636-15.049,8.636-18.197c0-3.146-1.975-5.242-3.948-5.242
		c-1.975,0-4.565,0.926-5.551,1.542c-1.111,0.681-1.42,0.372-1.42-0.801c0-1.356-0.249-6.047-4.319-6.047
		c-3.577,0-5.8,1.788-7.218,2.591c-1.419,0.802-1.173,0.493-1.358-0.186c-0.186-0.68-0.495-5.06-5.366-5.06
		c-4.877,0-7.431,2.433-10.453,5.702c-3.024,3.27-3.615,7.871-3.615,8.796c0,0.927,0.68,3.517,2.406,3.517
		c1.729,0,3.332-1.851,3.702-2.652c0.37-0.803,0.927-1.604-1.111-2.1c-2.037-0.492-0.988-4.069,0.435-5.982
		c1.417-1.911,3.33-3.824,5.796-3.824c2.466,0,2.59,2.344,1.604,4.193c-0.989,1.853-8.345,16.598-10.877,20.916
		c-2.774,4.688-5.367,7.647-6.601,8.639c-1.233,0.984,0.68,0.863,0.863,0.863c0.187,0,1.937,0.133,3.184,0
		c3.639-0.396,5.423-2.604,6.481-4.381c2.159-3.644,10.072-18.448,12.564-22.396c2.219-3.518,3.823-3.947,5.242-3.947
		s2.16,1.357,1.112,3.887c-1.05,2.529-5.89,12.522-8.48,17.026c-2.592,4.505-4.006,7.007-5.281,8.517
		c-1.154,1.365-0.244,1.295,0.617,1.295c0.865,0,0.923,0.046,2.445,0c3.015-0.098,4.489-2.096,5.662-3.702
		c1.172-1.604,7.751-14.931,9.293-17.707c1.541-2.774,3.455-3.702,5.369-3.702c1.912,0,1.664,2.346,1.108,3.641
		c-0.556,1.297-7.897,13.082-7.959,17.461c0,3.021,2.161,4.504,3.888,4.504c1.728,0,3.895-1.301,5.313-2.041
		c0.174-0.092,2.392-1.324,2.392-1.324c0.437,1.852,1.592,3.121,3.645,3.121c1.295,0,3.083-0.865,3.332-1.053
		c0.243-0.186,1.108-0.613,1.848,0c0.743,0.617,1.052,0.986,2.53,0.986c1.48,0,4.195-1.729,4.999-2.465
		c0.185-0.169,2.571-1.828,2.571-1.828c0.07,2.521,1.142,4.293,3.227,4.293c2.281,0,3.764-0.861,4.439-1.172
		c0.68-0.309,1.543-0.309,1.852,0.186c0.741,0.617,1.049,0.986,2.527,0.986c1.48,0,3.58-1.729,4.384-2.465
		c0.294-0.271,0.479-0.495,0.584-0.686l2.582-1.148c0.813,4.369,4.778,4.422,5.223,4.422c0,0,1.214,0,2.996-0.451
		c2.075-0.523,2.481-2.136,2.915-2.875c0.43-0.738-0.54-0.517-0.973-0.393c-0.432,0.124-0.998,0.312-2.85,0.312
		c-3.334,0-2.955-1.898-2.955-2.393s0.68-1.975,0.865-2.346c0.184-0.367,0.737-0.555,1.172-0.555c2.713,0,4.625-0.68,5.862-1.295
		c1.231-0.619,4.995-2.961,4.995-6.295C150,93.549,146.359,92.932,145.312,92.932z M107.247,99.534
		c-0.245,0.681-3.948,7.034-4.625,7.958c-0.679,0.927-1.853,2.098-3.086,2.098c-1.235,0-1.728-0.615-1.728-1.729
		c0-1.108,0.863-2.652,2.591-5.492c1.728-2.835,3.333-5.364,5.246-5.364C107.868,97.005,107.495,98.855,107.247,99.534z
		 M126.124,99.656c-0.739,1.42-3.332,6.418-4.133,7.466c-0.802,1.051-2.157,2.53-3.517,2.53c-1.355,0-2.037-1.172-1.355-2.777
		c0.68-1.602,3.516-6.973,4.688-8.266c1.17-1.297,1.789-1.668,2.899-1.668C125.814,96.941,126.867,98.238,126.124,99.656z
		 M144.264,100.215c-0.742,0.366-2.777,0.985-3.33,0.985c-0.558,0-1.052-0.062-0.558-0.804c0.492-0.74,2.283-2.838,3.146-3.269
		c0.862-0.433,1.232-0.619,1.729-0.619c0.493,0,1.604,0.312,1.604,1.175C146.855,98.546,145.251,99.721,144.264,100.215z"/>
	<g>
		<path fill="#FFFFFF" d="M79.991,120.413c-0.375,0.407-0.846,0.792-1.982,0.792c-1.074,0-2.089-0.819-2.089-2.035
			c0-1.168,0.903-2.1,2.078-2.1c1.084,0,1.74,0.623,1.931,0.811l-0.429,0.363c-0.18-0.148-0.682-0.604-1.498-0.604
			c-0.74,0-1.511,0.539-1.511,1.527c0,0.707,0.571,1.465,1.654,1.465c0.846,0,1.29-0.43,1.465-0.635L79.991,120.413z"/>
		<path fill="#FFFFFF" d="M81.417,119.139c0-1.244,0.99-2.068,2.126-2.068c1.137,0,2.125,0.818,2.125,2.068
			c0,1.242-0.988,2.066-2.125,2.066C82.407,121.205,81.417,120.386,81.417,119.139z M85.099,119.139
			c0-0.818-0.656-1.498-1.556-1.498c-0.899,0-1.555,0.68-1.555,1.498s0.655,1.496,1.555,1.496S85.099,119.957,85.099,119.139z"/>
		<path fill="#FFFFFF" d="M87.541,117.154h0.572v3.395h2.405v0.573H87.54L87.541,117.154L87.541,117.154z"/>
		<path fill="#FFFFFF" d="M91.987,117.154h0.572v3.395h2.405v0.573h-2.978L91.987,117.154L91.987,117.154z"/>
		<path fill="#FFFFFF" d="M99.549,117.154v0.57h-2.676v1.043h1.348v0.57h-1.348v1.209h2.776v0.573h-3.347v-3.97h3.247V117.154z"/>
		<path fill="#FFFFFF" d="M105.159,120.413c-0.375,0.407-0.847,0.792-1.982,0.792c-1.073,0-2.089-0.819-2.089-2.035
			c0-1.168,0.904-2.1,2.078-2.1c1.084,0,1.741,0.623,1.93,0.811l-0.428,0.363c-0.18-0.148-0.684-0.604-1.497-0.604
			c-0.739,0-1.512,0.539-1.512,1.527c0,0.707,0.569,1.465,1.655,1.465c0.847,0,1.291-0.43,1.465-0.635L105.159,120.413z"/>
		<path fill="#FFFFFF" d="M109.749,117.154v0.57h-1.392v3.396h-0.569v-3.396h-1.392v-0.57H109.749z"/>
		<path fill="#FFFFFF" d="M111.922,117.154v3.968h-0.57v-3.968H111.922z"/>
		<path fill="#FFFFFF" d="M113.713,119.139c0-1.244,0.99-2.068,2.127-2.068s2.125,0.818,2.125,2.068
			c0,1.242-0.988,2.066-2.125,2.066S113.713,120.386,113.713,119.139z M117.395,119.139c0-0.818-0.656-1.498-1.555-1.498
			c-0.9,0-1.555,0.68-1.555,1.498s0.654,1.496,1.555,1.496C116.738,120.635,117.395,119.957,117.395,119.139z"/>
		<path fill="#FFFFFF" d="M120.381,117.154l2.357,3.016h0.012v-3.016h0.57v3.968h-0.57l-2.359-3.017h-0.011v3.017h-0.571v-3.968
			H120.381z"/>
	</g>
</g>
</svg>
