<?xml version="1.0" encoding="utf-8"?>
<!-- Generator: Adobe Illustrator 16.2.0, SVG Export Plug-In . SVG Version: 6.00 Build 0)  -->
<!DOCTYPE svg PUBLIC "-//W3C//DTD SVG 1.1//EN" "http://www.w3.org/Graphics/SVG/1.1/DTD/svg11.dtd">
<svg version="1.1" id="Layer_1" xmlns="http://www.w3.org/2000/svg" xmlns:xlink="http://www.w3.org/1999/xlink" x="0px" y="0px"
	 width="200px" height="200px" viewBox="0 0 200 200" enable-background="new 0 0 200 200" xml:space="preserve">
<g>
	<path fill="#FFFFFF" d="M118.391,127.835c-1.287,1.784-3.05,2.651-5.392,2.651c-2.765,0-5.711-1.252-7.659-2.08
		c-0.789-0.336-1.41-0.6-1.844-0.711c-0.516-0.133-1.092-0.199-1.717-0.199c-1.779,0-3.355,0.535-3.453,0.57
		c-0.033,0.019-0.065,0.039-0.097,0.064c-0.024-0.015-0.049-0.027-0.077-0.043l-0.055-0.02c-0.036-0.008-0.889-0.168-2.027-0.168
		c-1.207,0-2.255,0.18-3.112,0.533c-0.412,0.17-0.992,0.521-1.727,0.963c-2.124,1.278-5.335,3.213-8.442,3.213
		c-1.779,0-3.312-0.655-4.557-1.953l-0.499-0.52l0.13,0.709c0.009,0.053,1.044,5.313,7.362,5.313c2.772,0,6.166-1.013,10.083-3.007
		c0.088-0.043,2.158-1.072,2.67-1.354c0.205-0.111,0.438-0.169,0.694-0.169c0.343,0,0.604,0.104,0.61,0.106
		c1.458,0.576,2.532,0.953,2.545,0.957c3.271,1.121,6.146,1.688,8.549,1.688c8.051,0,8.401-6.354,8.403-6.418l0.031-0.72
		L118.391,127.835z"/>
	<g>
		<path fill="#FFFFFF" d="M151.902,87.934c-0.012-1.904-1.58-3.463-3.483-3.463l-57.026-0.043c0.347-0.527,0.556-1.152,0.566-1.828
			l0.245-14.516c0.032-1.903-1.499-3.497-3.401-3.541l-30.395-0.706c-1.903-0.044-3.491,1.478-3.529,3.38L54.584,81.95
			c-0.019,0.946,0.35,1.813,0.959,2.452h-0.021c-1.903-0.002-3.467,1.555-3.474,3.457L52,102.086
			c-0.007,1.904,1.546,3.461,3.449,3.461h1.412c-1.569,0.357-2.727,1.791-2.677,3.46l0.444,14.95
			c0.056,1.902,1.659,3.417,3.562,3.365l48.44-1.326c1.902-0.053,3.435-1.652,3.401-3.557l-0.246-14.806
			c-0.014-0.792-0.299-1.515-0.76-2.089h39.535c1.902,0,3.449-1.557,3.438-3.461L151.902,87.934z M94.734,87.468
			c2.496,0.046,6.271,0.022,8.547-0.153c0.795-0.067,0.705,3.666-0.022,3.644c-0.596-0.022-1.413-0.022-2.317,0
			c-0.021,3.843,0,7.42,0.287,11.417c0.065,0.795-4.085,1.104-4.062,0.354c0.044-2.627-0.022-8.037-0.066-11.683
			c-0.795,0.022-1.523,0.065-2.076,0.088C94.116,91.18,94.072,87.445,94.734,87.468z M93.513,90.008
			c0.375,0.751-2.076,3.268-2.761,2.252c-0.574-0.883-1.59-1.59-2.562-1.59c-0.707,0-1.171,0.375-1.171,0.839
			c0,1.812,6.934,1.546,6.934,6.78c0,2.85-2.252,4.792-5.277,4.792c-2.914,0-4.924-1.634-6.205-3.933
			c-0.53-0.705,1.502-3.621,2.319-2.648c1.258,1.833,2.517,2.87,3.644,2.87c0.904,0,1.501-0.374,1.501-1.06
			c0-1.943-6.868-1.898-6.868-6.779c0-2.407,2.099-4.461,5.234-4.461C91.017,87.07,92.54,88.639,93.513,90.008z M84.556,67.26
			c3.577,0,5.52,3.489,5.52,8.393c0,0.441-0.221,0.686-0.573,0.686c-1.744,0.021-5.057,0.088-7.464,0.066
			c0.243,1.854,1.215,2.914,2.43,2.914c1.214,0,1.92-1.236,2.141-2.076c0.575-0.794,3.467,1.193,2.938,2.099
			c-0.662,2.187-2.385,3.888-5.277,3.888c-3.225,0-6.029-3.025-6.029-8.018C78.239,70.22,81.044,67.26,84.556,67.26z M81.564,87.865
			c-0.065,3.688,0.088,6.758,0.088,8.833c0,4.106-1.921,6.471-4.902,6.471s-5.322-1.877-5.322-6.448c0-2.406,0-5.632-0.133-8.723
			c-0.021-0.752,3.865-1.171,3.865-0.044c0,2.737-0.11,7.685-0.066,8.987c0.044,1.479,0.486,2.252,1.591,2.252
			c1.037,0,1.391-0.883,1.391-2.495c0-1.501-0.132-6.47-0.222-8.656C77.81,87.27,81.587,86.96,81.564,87.865z M66.468,73.399
			c0.198-0.022,0.463-0.022,0.751-0.044c-0.021-1.877-0.044-3.776-0.089-5.564c-0.021-0.729,3.888-0.729,3.864-0.089
			c-0.044,1.921-0.065,3.799-0.065,5.608c1.06-0.021,1.966-0.021,2.782-0.021c-0.022-1.832-0.044-3.688-0.089-5.433
			c-0.021-0.729,3.888-0.729,3.865-0.088c-0.11,5.189-0.11,9.65,0.11,14.642c0.021,0.751-3.997,0.816-3.976-0.021
			c0.045-1.789,0.066-3.556,0.089-5.39c-0.883-0.022-1.767-0.044-2.761-0.022c0.022,1.789,0.067,3.557,0.155,5.435
			c0.021,0.751-3.997,0.948-3.976,0.11c0.067-1.812,0.089-3.645,0.089-5.545c-0.266,0.022-0.465,0.022-0.574,0.045
			C65.783,77.132,65.85,73.466,66.468,73.399z M56.918,67.547c2.496,0.045,6.271,0.023,8.547-0.154
			c0.795-0.066,0.706,3.666-0.022,3.645c-0.597-0.022-1.413-0.022-2.319,0c-0.021,3.843,0,7.42,0.287,11.417
			c0.066,0.795-4.085,1.104-4.063,0.354c0.045-2.627-0.021-8.039-0.065-11.683c-0.796,0.021-1.523,0.066-2.076,0.089
			C56.299,71.258,56.255,67.524,56.918,67.547z M55.106,101.447c0.95-3.756,2.298-10.469,2.43-13.053
			c0.044-0.772,4.284-1.348,4.395-0.597c0.177,1.281,0.928,5.521,1.457,8.261c0.553-2.961,1.038-6.229,1.237-7.885
			c0.088-0.795,4.174-1.259,4.307-0.31c0.485,3.512,1.811,10.444,2.672,13.646c0.286,1.061-3.732,2.076-3.843,1.236
			c-0.265-2.055-0.773-5.454-1.214-7.883c-0.442,2.473-0.994,5.896-1.171,7.152c-0.133,0.816-3.799,1.26-3.976,0.09
			c-0.176-1.127-0.817-4.683-1.259-7.133c-0.485,2.562-0.927,5.608-1.215,7.686C58.795,103.501,54.886,102.264,55.106,101.447z
			 M62.57,124.021c-3.179,0-5.962-3.047-5.962-7.53c0-5.058,2.982-8.523,6.493-8.523c2.584,0,3.622,1.369,4.461,3.931
			c0,0.93-2.762,2.627-3.048,1.855c-0.375-0.973-0.485-2.031-1.723-2.031c-1.303,0-2.562,2.075-2.562,4.637
			c0,2.299,1.082,3.953,2.474,3.953c0.949,0,1.811-0.84,1.943-2.076c-0.928,0.021-1.546,0.223-2.319,0.223
			c-0.419,0-0.618-1.457-0.618-2.208c0-0.619,0.111-1.147,0.397-1.19c1.568-0.268,4.284-0.398,6.073-0.398
			c0.707,0,0.993,0.199,0.993,1.611c0,0.929-0.242,1.942-0.552,1.942c-0.177,0-0.354,0-0.508-0.021
			C67.651,121.283,65.574,124.021,62.57,124.021z M76.705,123.604c-0.088-0.287-0.265-0.929-0.485-1.636
			c-1.127,0.111-2.54,0.155-3.622,0.134c-0.109,0.598-0.242,1.215-0.331,1.724c-0.154,1.016-4.107-0.397-3.864-1.216
			c0.884-3.092,3.269-11.174,3.975-14.441c0.155-0.729,3.997,0.088,4.175,0.839c0.75,3.202,2.561,9.808,3.688,13.384
			C80.438,122.982,76.949,124.331,76.705,123.604z M92.96,123.536c-0.265-2.054-0.772-5.455-1.215-7.884
			c-0.441,2.473-0.993,5.896-1.171,7.154c-0.131,0.815-3.798,1.26-3.975,0.088c-0.176-1.127-0.817-4.683-1.259-7.134
			c-0.485,2.562-0.927,5.609-1.215,7.688c-0.132,0.839-4.041-0.397-3.82-1.216c0.95-3.754,2.298-10.467,2.43-13.051
			c0.044-0.773,4.284-1.349,4.395-0.599c0.177,1.28,0.928,5.521,1.458,8.26c0.552-2.959,1.037-6.228,1.236-7.884
			c0.088-0.795,4.173-1.258,4.307-0.311c0.485,3.513,1.811,10.445,2.672,13.647C97.089,123.359,93.071,124.375,92.96,123.536z
			 M107.846,117.044c-1.744,0.021-5.057,0.088-7.464,0.065c0.243,1.854,1.216,2.916,2.429,2.916c1.215,0,1.922-1.237,2.144-2.077
			c0.573-0.796,3.468,1.192,2.938,2.099c-0.662,2.188-2.387,3.887-5.277,3.887c-3.225,0-6.029-3.023-6.029-8.017
			c0-4.99,2.805-7.949,6.314-7.949c3.578,0,5.521,3.488,5.521,8.392C108.42,116.801,108.199,117.044,107.846,117.044z
			 M110.547,102.814c-0.088-0.287-0.265-0.926-0.484-1.633c-1.127,0.108-2.541,0.152-3.623,0.133
			c-0.108,0.596-0.24,1.213-0.33,1.722c-0.153,1.016-4.106-0.397-3.864-1.216c0.884-3.09,3.271-11.174,3.978-14.44
			c0.153-0.729,3.995,0.088,4.174,0.839c0.75,3.202,2.562,9.805,3.688,13.383C114.279,102.197,110.791,103.545,110.547,102.814z
			 M125.167,97.736c-0.905,3.356-2.562,5.41-5.608,5.41c-3.045,0-5.983-2.692-5.983-7.973c0-5.279,2.868-8.017,6.051-8.017
			c2.431,0,3.688,1.149,5.079,4.042c0.311,0.64-2.562,2.562-2.871,1.854c-0.396-0.883-1.018-2.074-2.164-2.074
			c-1.324,0-2.361,1.566-2.361,4.172c0,2.629,0.948,4.064,2.317,4.064c1.281,0,1.966-1.789,2.252-3.357
			C122.031,95.043,125.477,96.609,125.167,97.736z M132.787,102.309c0.044-1.789,0.066-3.557,0.089-5.39
			c-0.884-0.021-1.767-0.044-2.761-0.021c0.021,1.789,0.066,3.556,0.154,5.433c0.021,0.751-3.998,0.95-3.977,0.11
			c0.064-1.812,0.088-3.646,0.088-5.543c-0.265,0.021-0.464,0.021-0.572,0.043c-0.861,0.111-0.795-3.555-0.179-3.621
			c0.199-0.021,0.466-0.021,0.751-0.045c-0.021-1.875-0.044-3.774-0.088-5.563c-0.021-0.729,3.889-0.729,3.864-0.089
			c-0.044,1.922-0.066,3.799-0.066,5.609c1.062-0.022,1.968-0.022,2.783-0.022c-0.021-1.832-0.045-3.688-0.089-5.433
			c-0.021-0.729,3.887-0.729,3.863-0.088c-0.109,5.188-0.109,9.649,0.111,14.642C136.784,103.081,132.766,103.146,132.787,102.309z
			 M149.105,96.257c-1.744,0.022-5.059,0.089-7.465,0.066c0.241,1.854,1.215,2.915,2.43,2.915s1.922-1.236,2.143-2.076
			c0.574-0.795,3.467,1.191,2.938,2.1c-0.662,2.187-2.385,3.887-5.276,3.887c-3.226,0-6.028-3.026-6.028-8.019
			c0-4.991,2.805-7.95,6.315-7.95c3.575,0,5.521,3.489,5.521,8.393C149.68,96.016,149.459,96.257,149.105,96.257z"/>
		<path fill="#FFFFFF" d="M102.789,111.589c-1.016,0-2.01,1.062-2.319,2.716c1.059,0.022,3.445-0.021,4.284-0.044
			C104.688,112.914,103.938,111.589,102.789,111.589z"/>
		<path fill="#FFFFFF" d="M73.238,119.053c0.663-0.021,1.524-0.063,2.187-0.109c-0.354-1.502-0.795-3.754-1.126-5.188
			C73.923,115.432,73.548,117.596,73.238,119.053z"/>
		<path fill="#FFFFFF" d="M107.08,98.268c0.662-0.021,1.523-0.065,2.186-0.11c-0.353-1.503-0.793-3.755-1.125-5.19
			C107.766,94.645,107.391,96.811,107.08,98.268z"/>
		<path fill="#FFFFFF" d="M144.049,90.803c-1.017,0-2.01,1.061-2.318,2.717c1.062,0.021,3.444-0.022,4.283-0.045
			C145.948,92.127,145.197,90.803,144.049,90.803z"/>
		<path fill="#FFFFFF" d="M86.41,73.554c-0.066-1.347-0.817-2.672-1.965-2.672c-1.016,0-2.01,1.06-2.319,2.716
			C83.186,73.621,85.571,73.576,86.41,73.554z"/>
	</g>
</g>
</svg>
