<?xml version="1.0" encoding="utf-8"?>
<!-- Generator: Adobe Illustrator 16.2.0, SVG Export Plug-In . SVG Version: 6.00 Build 0)  -->
<!DOCTYPE svg PUBLIC "-//W3C//DTD SVG 1.1//EN" "http://www.w3.org/Graphics/SVG/1.1/DTD/svg11.dtd">
<svg version="1.1" id="Layer_1" xmlns="http://www.w3.org/2000/svg" xmlns:xlink="http://www.w3.org/1999/xlink" x="0px" y="0px"
	 width="200px" height="200px" viewBox="0 0 200 200" enable-background="new 0 0 200 200" xml:space="preserve">
<g>
	<g>
		<path fill="#FFFFFF" d="M91.909,119.734c-0.69,0-1.256-0.564-1.256-1.256c0-0.693,0.565-1.256,1.256-1.256
			c0.693,0,1.257,0.562,1.257,1.256C93.166,119.17,92.603,119.734,91.909,119.734z"/>
		<path fill="#FFFFFF" d="M97.025,119.76c-1.705,0-3.026-1.333-3.026-3.051c0-1.794,1.309-3.129,3.076-3.129
			c0.514,0,0.873,0.09,1.307,0.32v1.742c-0.371-0.27-0.652-0.371-0.998-0.371c-0.795,0-1.347,0.592-1.347,1.412
			c0,0.809,0.565,1.396,1.347,1.396c0.371,0,0.68-0.115,0.998-0.386v1.744C97.896,119.67,97.513,119.76,97.025,119.76z"/>
		<path fill="#FFFFFF" d="M102.512,119.785c-1.947,0-3.319-1.294-3.319-3.128c0-1.821,1.372-3.114,3.319-3.114
			c1.95,0,3.321,1.293,3.321,3.114C105.833,118.491,104.462,119.785,102.512,119.785z M102.512,115.338
			c-0.691,0-1.255,0.59-1.255,1.319c0,0.731,0.562,1.321,1.255,1.321s1.258-0.59,1.258-1.321
			C103.77,115.928,103.204,115.338,102.512,115.338z"/>
		<path fill="#FFFFFF" d="M114.127,119.568v-2.873c0-0.629,0-0.68-0.102-0.938c-0.129-0.307-0.396-0.5-0.721-0.5
			c-0.334,0-0.664,0.221-0.807,0.539c-0.104,0.219-0.145,0.46-0.145,0.896v2.871h-1.935v-2.871c0-0.631-0.015-0.705-0.09-0.924
			c-0.104-0.318-0.438-0.562-0.757-0.562c-0.297,0-0.643,0.218-0.771,0.5c-0.089,0.205-0.128,0.475-0.128,0.986v2.871h-1.946v-5.809
			h1.946v0.705c0.578-0.576,1.063-0.807,1.784-0.807c0.857,0,1.423,0.332,1.87,1.088c0.437-0.73,1.065-1.088,1.874-1.088
			c0.652,0,1.242,0.293,1.562,0.781c0.207,0.318,0.309,0.729,0.309,1.348v3.781h-1.947v0.004H114.127z"/>
	</g>
	<g>
		<path fill="#FFFFFF" d="M140.104,92.451c1.383,0.004,2.715-1.096,2.877-2.496c0.141-1.275-0.772-2.127-1.938-2.13
			c-1.38-0.005-2.714,1.096-2.883,2.454C138.02,91.555,138.896,92.448,140.104,92.451z"/>
		<path fill="#FFFFFF" d="M157.654,95.195c-1.75-0.102-3.836,1.146-6.254,3.703c0.92-3.392-1.479-4.199-2.846-4.199
			c0,0-1.592,0.033-1.996,0.734c-0.476,0.825,0.453,1.062,0.711,1.447c0.172,0.258,0.256,0.77-0.213,1.928
			c0,0-2.541,6.191-2.603,6.332c-0.289,0.51-1.238,2.025-2.688,2.838c-1.072,0.602-3.479,1.105-4.334,0.205
			c-0.729-0.771-0.127-2.185,0.045-2.654l2.354-5.691c1.755-4.281-1.145-5.138-2.643-5.138c0,0-1.59,0.034-1.996,0.735
			c-0.476,0.824,0.455,1.062,0.711,1.446c0.172,0.257,0.258,0.771-0.213,1.927c0,0-2.512,6.151-2.547,6.252
			c-0.365,0.779-1.283,2.555-2.315,3.133c-1.581,0.887-2.938,1.104-3.968,0.248c-1.154-0.984-0.471-2.912-0.086-3.812l4.109-9.889
			c0,0-3.334,0-3.822,0c-0.724,0-0.938,0.567-0.938,0.567l-0.451,1.103c-1.067-1.542-2.288-1.841-3.017-1.97
			c-2.354-0.428-5.381,0.6-7.221,2.014c-3.467,2.695-5.31,6.293-5.31,9.889c0,0.273,0.054,0.588,0.146,0.916
			c0.021,0.199-0.004,0.809-0.918,1.412c-1.002,0.661-2.383,0.654-3.388,0.26c-0.844-0.332-1.106-1.433-1.106-1.433
			s0.982-1.327,1.541-2.396c1.582-3.082,1.582-6.123,0.854-7.834c-0.854-2.057-3.112-2.826-4.995-2.912
			c-1.927-0.084-3.513,0.213-5.608,1.969c-0.008-0.012-0.015-0.026-0.021-0.038c-0.574-1.245-2.023-1.567-2.943-1.567
			c0,0-1.591,0.031-1.997,0.734c-0.475,0.824,0.456,1.061,0.713,1.447c0.162,0.246,0.411,0.869,0.067,2l-3.163,7.787
			c-0.396,0.529-0.911,1.062-1.551,1.433c-1.821,1.048-3.573,1.435-6.058,0.791c-1.283-0.343-2.446-1.39-2.763-2.047
			c0,0,5.209-2.847,7.034-4.283c2.021-1.594,2.517-4.537,0.886-6.45c-1.095-1.285-3.924-1.719-5.91-1.402
			c-2.801,0.442-6.341,2.238-7.495,6.436c-0.599,2.141-0.171,4.708,0.897,6.377c0.048,0.076,0.106,0.139,0.153,0.212
			c-0.493,0.257-0.986,0.488-1.532,0.731c-0.93,0.414-2.886,0.664-4.266,0.231c-1.038-0.303-1.456-1.303-1.8-2.385
			c-0.086-0.172-1.333-4.324-1.809-6.008c1.687-0.521,3.233-1.425,4.616-2.46c2.722-2.075,3.91-4.282,4.126-7.221
			c0.389-4.32-3.005-6.609-5.164-7.387c-3.414-1.254-7.158-1.295-11.002-0.561c-4.579,0.908-9.664,3.072-12.876,6.836
			c-3.273,3.828-4.566,7.682-4.763,11.066c-0.364,6.267,2.249,9.365,5.562,10.243c6.027,1.599,10.365-3.003,12.819-10.008
			c0.856,0.104,1.413,0.179,1.853,0.183l1.555,6.092c0.348,1.426,1.469,3.154,3.414,3.844c2.204,0.779,4.669,0.484,6.176-0.02
			c0.884-0.293,2.455-1.137,4.03-2.043c1.741,1.742,4.265,2.539,7.285,2.336c2.7-0.186,4.311-1.233,5.588-2.092l-4.237,10.434h3.394
			c0,0,0.727-0.039,1.037-0.697c0.306-0.656,3.904-9.447,3.904-9.447c1.199,1.199,3.124,1.883,4.881,1.883
			c2.226,0,4.142-0.854,4.653-1.24c0,0,1.07,1.24,2.953,1.24c1.67,0,3.082-0.512,4.539-1.453l1.564-1.002
			c0.742,1.144,1.91,2.157,3.348,2.328c3.256,0.385,4.6-0.6,7.51-3.212c0.729,2.998,3.427,3.298,3.938,3.298
			c1.455,0,3.572-0.639,5.069-1.58l2.044-1.39c0.033,0.126,0.07,0.247,0.121,0.356c0.471,1.156,1.714,2.354,3.168,2.57
			c1.968,0.299,3.596-0.259,4.754-0.984l1.938-1.518c-0.388,0.928-0.731,1.84-0.926,2.555l3.549,0.013c0,0,0.581-0.011,0.896-0.812
			c1.428-3.67,2.084-5.096,2.243-5.533l1.242-2.596c1.736-2.201,3.83-3.688,4.851-4.049c0.032,1.022,0.873,1.922,2.166,1.997
			c1.378,0.08,2.789-0.985,3.046-2.417C160.223,96.408,159.163,95.284,157.654,95.195z M61.868,98.557
			c-0.797,0.118-1.441,0.295-2.694,0.207c2.025-5.447,2.976-10.591,5.482-11.351c0.658-0.198,0.785-0.601,0.422-0.901
			c-0.317-0.266-0.994-0.291-1.323-0.302c-1.437,0.017-3.133,0.442-4.23,1.49c-1.426,1.36-2.331,2.993-3.826,6.993
			c-1.201,3.207-2.397,8.16-4.531,12.049c-1.809,3.294-3.291,3.66-4.648,3.058c-3.328-1.479-2.657-8.766-0.766-14.268
			c0.977-2.843,3.557-7.005,6.264-8.984c4.906-3.586,9.677-3.636,12.184-3.159c5.876,1.122,5.357,6.699,4.578,8.902
			C67.613,95.574,65.571,97.998,61.868,98.557z M80.154,96.535c2.063-1.377,3.792,0.425,3.768,2.365
			c-0.016,1.031-0.398,2.638-2.036,4.055c-1.761,1.529-3.445,2.439-3.445,2.439C77.032,101.906,78.808,97.432,80.154,96.535z
			 M103.418,100.135c-0.046,0.941-0.645,3.381-1.285,4.666c-1.242,2.526-3.339,4.152-5.394,4.025
			c-0.986-0.045-2.186-0.514-3.254-1.672l3.681-8.818c0.473-0.429,2.143-1.969,3.852-1.584
			C101.875,96.966,103.546,97.438,103.418,100.135z M121.82,105.699c-0.941,1.242-2.543,2.869-4.771,2.912
			c-0.642,0.041-1.281-0.088-1.798-0.601c-1.54-1.497-0.385-4.925,0.813-6.979c1.283-2.271,3.338-4.194,5.137-4.624
			c0.854-0.172,2.715-0.172,3.525,2.312L121.82,105.699z"/>
	</g>
</g>
</svg>
