<?xml version="1.0" encoding="utf-8"?>
<!-- Generator: Adobe Illustrator 16.2.0, SVG Export Plug-In . SVG Version: 6.00 Build 0)  -->
<!DOCTYPE svg PUBLIC "-//W3C//DTD SVG 1.1//EN" "http://www.w3.org/Graphics/SVG/1.1/DTD/svg11.dtd">
<svg version="1.1" id="Layer_1" xmlns="http://www.w3.org/2000/svg" xmlns:xlink="http://www.w3.org/1999/xlink" x="0px" y="0px"
	 width="200px" height="200px" viewBox="0 0 200 200" enable-background="new 0 0 200 200" xml:space="preserve">
<g>
	<g>
		<path fill="#FFFFFF" d="M157.202,89.014c-0.618-2.971-3.908-3.111-3.908-3.111l-66.225-0.157c0,0-9.535-0.897-13.165,4.786
			c-2.694,4.221-12.087,4.109-12.087,4.109h-9.412h-4.323c-0.042,0-0.077,0.024-0.092,0.062c-0.055,0.155-0.197,0.271-0.371,0.271
			h-0.15c-0.173,0-0.315-0.113-0.37-0.269c0,0,0-0.002-0.001-0.003c-0.016-0.036-0.051-0.061-0.092-0.061H44.68h-1.921
			c-0.042,0-0.078,0.024-0.094,0.062c-0.053,0.155-0.196,0.271-0.369,0.271h-0.151c-0.173,0-0.314-0.113-0.37-0.269
			c0,0-0.001-0.002-0.001-0.003c-0.015-0.036-0.051-0.061-0.092-0.061h-2.326c0,0-1.355,0.039-1.355,5.623
			c0,5.586,1.355,5.387,1.355,5.387h2.318c0.042,0,0.077-0.025,0.092-0.062c0.055-0.156,0.197-0.27,0.371-0.27h0.15
			c0.173,0,0.316,0.113,0.37,0.268l0.001,0.002c0.016,0.036,0.051,0.062,0.092,0.062h2.325h1.93c0.042,0,0.076-0.025,0.092-0.062
			c0.055-0.156,0.197-0.27,0.37-0.27h0.151c0.173,0,0.315,0.113,0.37,0.268c0,0,0,0.001,0.001,0.002
			c0.015,0.036,0.05,0.062,0.091,0.062h2.326h11.411c0,0,4.006,0.092,7.517,0.912c2.01,0.471,3.773,1.642,4.85,3.155
			c1.236,1.74,2.977,3.056,5.466,3.75c3.547,0.991,7.42,1.076,7.42,1.076l66.225-0.157c0,0,3.35,0.157,3.908-3.111
			c0.615-3.606,0.793-6.541,0.798-11.358C157.995,95.364,157.925,92.48,157.202,89.014z M93.938,111.857
			c-0.049,0.031-0.117,0.051-0.188,0.051c-0.112,0-0.202-0.047-0.273-0.086c-0.028-0.016-0.074-0.039-0.09-0.04l-0.076-0.003
			l-0.063-0.051c-0.294-0.266-0.402-0.623-0.498-0.939c-0.026-0.088-0.052-0.174-0.082-0.255c-0.068-0.113-0.127-0.247-0.183-0.375
			c-0.032-0.075-0.064-0.149-0.102-0.224c-0.185-0.521-0.42-1.164-0.689-1.771c-0.082-0.184-0.151-0.367-0.223-0.561
			c-0.044-0.115-0.09-0.236-0.14-0.361l-0.025-0.045c-0.038-0.066-0.083-0.147-0.11-0.229l-0.01-0.065
			c-0.002-0.019-0.028-0.068-0.043-0.102c-0.017-0.033-0.027-0.06-0.035-0.082l-0.037-0.062c-0.078-0.192-0.154-0.392-0.23-0.595
			c-0.144-0.383-0.293-0.777-0.481-1.155c-0.396-1.027-0.723-1.939-0.978-2.729c-0.116-0.137-0.169-0.312-0.216-0.468
			c-0.035-0.112-0.07-0.229-0.119-0.289l-0.043-0.083c-0.014-0.054-0.033-0.104-0.055-0.146c-0.029-0.067-0.057-0.135-0.076-0.211
			c-0.03-0.092-0.069-0.196-0.11-0.307c-0.073-0.197-0.15-0.4-0.215-0.638c-0.121-0.365-0.262-0.75-0.443-1.063
			c-0.022,0.008-0.055,0.017-0.082,0.024c-0.047,0.014-0.097,0.028-0.149,0.038c-0.032,0.775-0.02,1.572-0.006,2.41
			c0.007,0.463,0.015,0.933,0.015,1.406c0.021,1.135,0.015,2.313,0.007,3.455c-0.003,0.572-0.007,1.146-0.007,1.707l-0.013,0.106
			c-0.028,0.192-0.053,0.358-0.053,0.546c0.007,0.027,0.021,0.089,0.035,0.15c0.03,0.14,0.062,0.283,0.062,0.438
			c-0.017,0.365-0.017,0.746-0.017,1.131c0,0.391,0,0.786-0.016,1.164l-0.004,0.082l-0.058,0.059
			c-0.126,0.125-0.278,0.19-0.441,0.19c-0.025,0-0.051,0.004-0.077,0.007c-0.044,0.006-0.087,0.01-0.128,0.01
			c-0.212,0-0.306-0.125-0.342-0.195c-0.208-0.337-0.165-0.688-0.124-1.031c0.018-0.148,0.037-0.304,0.037-0.467v-1.471
			c-0.02-0.568-0.005-1.162,0.012-1.736c0.011-0.381,0.021-0.764,0.021-1.139c-0.026-1.146-0.032-2.308-0.037-3.432
			c-0.007-1.685-0.015-3.427-0.093-5.148c-0.001-0.229,0.019-0.441,0.036-0.646c0.023-0.27,0.047-0.521,0.029-0.785
			c-0.079-0.85-0.051-1.699-0.024-2.523c0.019-0.545,0.037-1.108,0.023-1.664c0-0.483,0-0.979-0.032-1.428l-0.001-0.814
			c-0.005-0.223-0.012-0.525,0.21-0.702c0.152-0.114,0.359-0.132,0.47-0.132c0.085,0,0.167,0.01,0.234,0.025
			c0.224,0.022,0.485,0.174,0.739,0.317c0.096,0.056,0.19,0.109,0.283,0.155l0.181,0.088c0.271,0.129,0.606,0.29,0.809,0.463
			l0.097,0.074c0.279,0.215,0.596,0.459,0.814,0.74c0.198,0.195,0.371,0.507,0.539,0.807c0.067,0.137,0.137,0.268,0.209,0.405
			c0.082,0.153,0.168,0.317,0.254,0.489c0.131,0.359,0.183,0.722,0.237,1.104c0.023,0.159,0.046,0.322,0.075,0.488
			c0.062,0.434,0.137,0.965,0.066,1.562l-0.017,0.145c-0.028,0.25-0.062,0.531-0.122,0.715c-0.239,0.683-0.658,1.279-1.21,1.729
			c-0.178,0.127-0.345,0.229-0.523,0.34l-0.216,0.133c-0.125,0.063-0.238,0.106-0.351,0.15c-0.113,0.043-0.222,0.086-0.317,0.137
			c0.015,0.055,0.042,0.127,0.091,0.227c0.213,0.497,0.397,1.009,0.575,1.503c0.159,0.444,0.324,0.906,0.509,1.353
			c0.214,0.525,0.42,1.062,0.625,1.597c0.203,0.526,0.405,1.054,0.616,1.571c0.19,0.509,0.386,0.985,0.578,1.457
			c0.212,0.521,0.413,1.012,0.602,1.521c0.019,0.057,0.035,0.116,0.052,0.175c0.014,0.048,0.027,0.095,0.041,0.138
			c0.098,0.168,0.196,0.367,0.294,0.593c0.033,0.088,0.068,0.169,0.105,0.254c0.082,0.188,0.174,0.397,0.226,0.63
			c0.092,0.146,0.165,0.328,0.243,0.52c0.035,0.086,0.071,0.174,0.11,0.262l0.371,0.754
			C94.278,111.596,94.103,111.777,93.938,111.857z M102.773,96.854c0,0.15-0.021,0.301-0.037,0.447
			c-0.014,0.123-0.029,0.241-0.029,0.359c0,0.195,0.01,0.438,0.02,0.691c0.02,0.438,0.035,0.893,0.016,1.246
			c0.021,0.633,0.004,1.316-0.014,1.979c-0.01,0.448-0.021,0.896-0.021,1.34c0,0.81-0.021,2.317-0.164,3.36
			c-0.015,0.119-0.015,0.24-0.015,0.363c0,0.139,0,0.276-0.018,0.418c-0.035,0.145-0.066,0.269-0.1,0.365
			c0,0.135-0.002,0.271-0.042,0.393c-0.054,0.264-0.129,0.522-0.204,0.774c-0.055,0.179-0.104,0.353-0.146,0.524
			c-0.008,0.174-0.086,0.283-0.144,0.363c-0.028,0.039-0.053,0.072-0.067,0.11l-0.004,0.029c-0.033,0.134-0.07,0.286-0.146,0.401
			c-0.103,0.104-0.146,0.209-0.202,0.33c-0.059,0.129-0.124,0.273-0.236,0.406l-0.021,0.032c-0.06,0.094-0.14,0.223-0.275,0.325
			c-0.046,0.041-0.104,0.096-0.164,0.15c-0.21,0.194-0.448,0.418-0.757,0.559c-0.308,0.136-0.691,0.203-1.115,0.203
			c-0.285,0-0.587-0.03-0.876-0.092c-0.244-0.049-0.47-0.146-0.667-0.232c-0.085-0.037-0.166-0.072-0.244-0.104
			c-0.276-0.152-0.53-0.3-0.689-0.537c-0.018-0.024-0.031-0.043-0.042-0.056c-0.027-0.03-0.066-0.075-0.083-0.153
			c-0.018-0.035-0.027-0.069-0.034-0.102l-0.024-0.023l0.007-0.016c-0.002-0.004-0.021-0.018-0.033-0.027
			c-0.021-0.017-0.042-0.033-0.058-0.047c-0.128-0.129-0.202-0.313-0.273-0.494l-0.014-0.045c-0.013-0.076-0.062-0.188-0.114-0.311
			c-0.058-0.13-0.123-0.279-0.173-0.448c-0.09-0.297-0.15-0.637-0.21-0.966l-0.025-0.135c-0.09-0.391-0.156-0.745-0.229-1.215
			c-0.221-1.683-0.211-3.662-0.202-5.576c0.002-0.377,0.003-0.75,0.003-1.117c0-0.723,0.011-1.503,0.021-2.296
			c0.015-1.21,0.031-2.461,0.012-3.546c-0.017-0.709,0-1.383,0.017-2.035c0.017-0.662,0.032-1.287,0.017-1.947
			c0-0.146-0.005-0.286-0.008-0.425c-0.007-0.284-0.015-0.578,0.008-0.871c0-0.246,0-0.685,0.37-0.746
			c0.05-0.005,0.086-0.008,0.12-0.008c0.354,0,0.581,0.213,0.581,0.541c0,0.103-0.009,0.253-0.017,0.403
			c-0.008,0.143-0.016,0.285-0.016,0.379c0,0.092,0.007,0.195,0.014,0.306c0.01,0.127,0.019,0.26,0.019,0.383
			c0,0.306,0,0.569-0.034,0.812c-0.014,0.857,0.006,1.721,0.024,2.554c0.022,1.021,0.046,2.074,0.01,3.205
			c-0.022,0.336-0.015,0.823-0.007,1.253c0.003,0.197,0.007,0.384,0.007,0.537c0,0.216-0.011,0.427-0.022,0.632
			c-0.015,0.297-0.029,0.578-0.011,0.854c0.018,0.502,0.008,1.011,0.001,1.5c-0.009,0.49-0.017,0.994,0,1.479
			c0,0.229,0.016,0.463,0.031,0.694c0.018,0.242,0.033,0.481,0.033,0.717c0.017,0.236,0.017,0.486,0.017,0.734
			c0,0.24,0,0.479,0.016,0.722c0.059,0.489,0.124,1.022,0.221,1.577c0.005,0.009,0.01,0.016,0.014,0.021
			c0.024,0.041,0.061,0.101,0.061,0.179c0.007,0.016,0.028,0.062,0.048,0.112c0.038,0.099,0.082,0.209,0.082,0.347
			c0,0.098,0.025,0.201,0.083,0.346c0.03,0.092,0.059,0.188,0.087,0.291c0.042,0.148,0.087,0.312,0.144,0.465
			c0.184,0.439,0.403,0.795,0.652,1.05c0.066,0.044,0.109,0.099,0.137,0.134c0.569,0.319,1.14,0.442,1.607,0.32
			c0.235-0.066,0.424-0.16,0.572-0.285c0.208-0.179,0.393-0.393,0.58-0.673c0.009-0.021,0.04-0.065,0.071-0.108
			c0.018-0.021,0.035-0.043,0.046-0.064c0.004-0.012,0.01-0.046,0.016-0.072c0.011-0.051,0.021-0.104,0.037-0.16
			c0.041-0.103,0.087-0.185,0.132-0.266c0.036-0.064,0.071-0.131,0.104-0.204c0.031-0.065,0.045-0.11,0.057-0.158
			c0.018-0.056,0.033-0.108,0.06-0.17c0.001-0.104,0.013-0.229,0.101-0.335c-0.002-0.02-0.002-0.029-0.002-0.043l0.011-0.066
			c0.026-0.08,0.067-0.133,0.098-0.172c0.021-0.026,0.028-0.039,0.034-0.057c0.007-0.025,0.013-0.08,0.021-0.139
			c0.012-0.102,0.027-0.225,0.065-0.354c0.005-0.154,0.04-0.3,0.069-0.43c0.014-0.045,0.022-0.09,0.031-0.133
			c0.028-0.176,0.037-0.359,0.045-0.555c0.008-0.199,0.019-0.406,0.051-0.615c0.098-1.119,0.131-2.213,0.162-3.271
			c0-0.241-0.004-0.489-0.008-0.739c-0.007-0.5-0.016-1.021,0.008-1.548c0.017-0.35,0-0.772-0.017-1.221
			c-0.017-0.454-0.032-0.923-0.018-1.327c0-0.393,0.034-0.795,0.065-1.186c0.03-0.381,0.063-0.774,0.063-1.157
			c0-0.117-0.003-0.236-0.009-0.358c-0.008-0.255-0.014-0.519,0.01-0.771l-0.004-0.009c-0.031-0.381-0.062-0.738-0.028-1.133
			c-0.002-0.358-0.021-0.744-0.034-1.125c-0.017-0.379-0.031-0.752-0.031-1.111v-1.73c0-0.029-0.004-0.062-0.006-0.096
			c-0.014-0.166-0.033-0.418,0.184-0.592c0.076-0.061,0.169-0.094,0.27-0.094c0.196,0,0.381,0.123,0.541,0.231
			c0.247,0.147,0.221,0.458,0.196,0.729c-0.007,0.074-0.015,0.146-0.015,0.211v0.785c-0.021,0.522-0.014,1.045-0.008,1.594
			c0.004,0.273,0.008,0.549,0.008,0.822c0,0.446,0.008,0.887,0.015,1.323C102.802,95.044,102.816,95.936,102.773,96.854z
			 M111.359,95.378l-0.014,0.056c0,0.137-0.005,0.277-0.045,0.399c-0.029,0.062-0.035,0.089-0.045,0.112
			c-0.021,0.065-0.044,0.147-0.145,0.297c-0.021,0.029-0.051,0.148-0.069,0.227c-0.021,0.08-0.042,0.166-0.065,0.246
			c-0.023,0.051-0.041,0.079-0.062,0.111c-0.035,0.058-0.083,0.137-0.102,0.199c-0.068,0.281-0.17,0.496-0.268,0.705
			c-0.042,0.094-0.085,0.185-0.125,0.283c-0.041,0.201-0.152,0.344-0.244,0.459l-0.052,0.064c-0.032,0.049-0.063,0.113-0.097,0.178
			c-0.078,0.16-0.17,0.342-0.348,0.459c-0.063,0.033-0.111,0.043-0.146,0.049c-0.086,0.155-0.188,0.258-0.28,0.35
			c-0.229,0.191-0.39,0.32-0.588,0.451l-0.038,0.02c-0.073,0.031-0.133,0.068-0.196,0.111c-0.07,0.046-0.146,0.094-0.244,0.144
			c-0.008,0.003-0.02,0.009-0.026,0.013c-0.029,0.045-0.071,0.076-0.117,0.094c-0.073,0.037-0.153,0.06-0.235,0.074
			c0.029,0.016,0.06,0.031,0.086,0.054c0.031,0.021,0.066,0.03,0.139,0.047c0.076,0.019,0.173,0.038,0.287,0.096
			c0.189,0.07,0.354,0.183,0.529,0.3c0.064,0.045,0.133,0.09,0.205,0.135c0.254,0.146,0.465,0.392,0.668,0.627l0.284,0.285
			c0.099,0.099,0.21,0.209,0.288,0.326c0.21,0.232,0.344,0.545,0.473,0.848c0.031,0.074,0.064,0.152,0.1,0.229
			c0.051,0.124,0.136,0.354,0.179,0.567c0.024,0.151,0.052,0.354,0.074,0.557l0.024,0.209c0.012,0.07,0.023,0.147,0.037,0.228
			c0.031,0.164,0.062,0.336,0.062,0.484c0.02,0.301-0.042,0.594-0.104,0.877c-0.041,0.196-0.08,0.385-0.096,0.574
			c0.001,0.2-0.066,0.385-0.127,0.545c-0.018,0.043-0.031,0.085-0.046,0.128c-0.006,0.017-0.006,0.031-0.006,0.064
			c0,0.049,0,0.114-0.027,0.194c-0.021,0.088-0.06,0.188-0.099,0.293c-0.062,0.158-0.119,0.31-0.119,0.459
			c0,0.256-0.141,0.461-0.251,0.627c-0.048,0.069-0.097,0.14-0.124,0.205c-0.077,0.205-0.178,0.328-0.282,0.457
			c-0.041,0.051-0.086,0.104-0.134,0.172c-0.104,0.134-0.23,0.25-0.346,0.354c-0.049,0.045-0.096,0.088-0.135,0.128l-0.055,0.039
			c-0.027,0.014-0.074,0.038-0.1,0.053l-0.021,0.03c-0.048,0.073-0.094,0.146-0.187,0.237c-0.09,0.09-0.182,0.135-0.315,0.201
			c-0.077,0.027-0.082,0.033-0.142,0.093l-0.057,0.038c-0.021,0.013-0.062,0.041-0.111,0.074c-0.149,0.104-0.258,0.172-0.338,0.198
			c-0.229,0.039-0.317,0.079-0.43,0.132c-0.093,0.041-0.195,0.086-0.367,0.133c-0.139,0.035-0.256,0.082-0.369,0.127
			c-0.225,0.086-0.455,0.175-0.764,0.175c-0.391,0-0.568-0.095-0.711-0.376c-0.123-0.25-0.088-0.459-0.056-0.661
			c0.042-0.358,0.021-0.695-0.003-1.052c-0.016-0.221-0.027-0.441-0.027-0.668c0-0.368,0.032-0.738,0.065-1.096
			c0.014-0.464,0.002-0.939-0.011-1.402c-0.015-0.576-0.027-1.172,0.011-1.76c0.03-0.355,0.063-0.718,0.063-1.064
			c0-0.428-0.012-0.85-0.021-1.271c-0.018-0.643-0.032-1.307-0.014-2c0.033-1.106,0.033-2.186,0.033-3.326v-0.521
			c0-0.076-0.009-0.159-0.017-0.242c-0.009-0.096-0.019-0.191-0.019-0.279s0.01-0.186,0.019-0.28
			c0.008-0.083,0.017-0.167,0.017-0.242c0-0.175-0.015-0.397-0.027-0.64c-0.02-0.297-0.037-0.623-0.037-0.928
			c0-0.356-0.018-0.705-0.032-1.053c-0.019-0.354-0.033-0.708-0.033-1.07c0-0.092,0.011-0.172,0.019-0.252
			c0.008-0.066,0.016-0.134,0.016-0.205V89.4c0-0.267,0.031-0.514,0.104-0.801l0.019-0.045c0.034-0.076,0.098-0.213,0.284-0.213
			c0.013-0.004,0.046-0.005,0.076-0.005c0.121,0,0.209,0.026,0.279,0.047c0.088,0.026,0.117,0.032,0.19,0.005l0.073-0.014
			c0.112,0,0.197,0.041,0.256,0.07c0.037,0.02,0.056,0.025,0.07,0.025c0.026,0,0.058-0.001,0.088-0.003
			c0.108-0.006,0.237-0.024,0.403,0.046c0.688,0.155,1.229,0.379,1.653,0.684c0.21,0.14,0.381,0.277,0.549,0.447
			c0.296,0.295,0.632,0.631,0.904,1.004c0.104,0.127,0.176,0.248,0.242,0.365c0.037,0.063,0.074,0.129,0.119,0.196
			c0.105,0.176,0.24,0.41,0.342,0.61c0.088,0.147,0.109,0.324,0.132,0.479c0.002,0.025,0.006,0.05,0.009,0.075
			c0.057,0.068,0.07,0.123,0.075,0.158c0.03,0.138,0.034,0.271,0.034,0.423l0.009,0.021c0.024,0.07,0.053,0.148,0.057,0.25
			c0.025,0.119,0.043,0.219,0.06,0.32c0.021,0.139,0.045,0.284,0.1,0.503C111.573,94.531,111.454,95.001,111.359,95.378z
			 M119.438,89.559c-0.037,0.066-0.071,0.131-0.09,0.191l-0.021,0.05c-0.05,0.082-0.081,0.183-0.113,0.288
			c-0.021,0.07-0.043,0.141-0.067,0.204c-0.131,0.597-0.263,1.115-0.42,1.647c-0.021,0.06-0.021,0.14-0.021,0.168
			c0,0.026,0,0.099-0.083,0.199c-0.009,0.037-0.013,0.073-0.019,0.109c-0.01,0.062-0.02,0.127-0.037,0.2
			c-0.045,0.134-0.09,0.253-0.135,0.374c-0.104,0.269-0.211,0.546-0.252,0.846c-0.022,0.116-0.07,0.219-0.115,0.316
			c-0.035,0.078-0.07,0.158-0.084,0.217c0.004,0.062,0.006,0.171-0.028,0.291c-0.009,0.088-0.042,0.164-0.073,0.229
			c-0.012,0.055-0.021,0.107-0.031,0.163c-0.048,0.236-0.1,0.505-0.236,0.736c-0.016,0.047-0.027,0.097-0.041,0.144
			c-0.039,0.146-0.076,0.282-0.152,0.387c-0.079,0.343-0.191,0.598-0.311,0.865c-0.039,0.084-0.078,0.172-0.114,0.264
			c-0.062,0.146-0.097,0.261-0.13,0.377c-0.021,0.064-0.038,0.129-0.062,0.197c-0.037,0.096-0.086,0.174-0.136,0.254
			c-0.043,0.064-0.083,0.129-0.11,0.199c0.008,0.088-0.005,0.159-0.035,0.213c0,0.985,0.033,2.018,0.063,3.017
			c0.033,1.028,0.065,2.093,0.065,3.108c0,0.541-0.019,1.17-0.032,1.802c-0.017,0.627-0.033,1.254-0.033,1.792
			c0,0.346,0.004,0.695,0.008,1.047c0.009,0.701,0.015,1.424-0.008,2.127l-0.003,0.084l-0.059,0.059
			c-0.105,0.104-0.27,0.162-0.459,0.162c-0.143,0-0.285-0.031-0.402-0.091l-0.051-0.026l-0.03-0.045
			c-0.091-0.134-0.079-0.296-0.071-0.412l0.004-0.062c0.014-0.973,0.006-2.021-0.003-3.135c-0.011-1.672-0.022-3.397,0.035-4.939
			c0-0.169-0.009-0.344-0.017-0.521c-0.008-0.184-0.019-0.364-0.019-0.549c0-0.349,0-0.742-0.03-1.092
			c0-0.257-0.004-0.498-0.008-0.74c-0.009-0.48-0.016-0.979,0.008-1.442c-0.002-0.06-0.084-0.286-0.238-0.663l-0.04-0.1
			c-0.034-0.1-0.062-0.187-0.093-0.244c-0.021-0.062-0.043-0.094-0.067-0.129c-0.022-0.035-0.046-0.068-0.062-0.102
			c-0.033-0.064-0.047-0.128-0.054-0.185c-0.024-0.024-0.055-0.06-0.077-0.108c-0.061-0.169-0.113-0.294-0.168-0.42
			c-0.062-0.136-0.119-0.271-0.173-0.424c-0.202-0.475-0.396-1-0.556-1.508c-0.057-0.146-0.104-0.305-0.153-0.471
			c-0.032-0.108-0.065-0.224-0.104-0.342c-0.07-0.277-0.133-0.525-0.229-0.775c-0.104-0.332-0.199-0.658-0.298-0.986
			c-0.219-0.734-0.444-1.495-0.714-2.215c-0.036-0.146-0.107-0.276-0.186-0.414c-0.16-0.292-0.361-0.655-0.121-1.016
			c0.072-0.121,0.228-0.199,0.406-0.199c0.223,0,0.424,0.113,0.51,0.287c0.307,0.557,0.496,1.199,0.683,1.819
			c0.06,0.197,0.116,0.396,0.181,0.593c0.07,0.312,0.137,0.604,0.2,0.862c0.05,0.14,0.106,0.296,0.166,0.449
			c0.146,0.383,0.294,0.778,0.392,1.187l0.037,0.157c0.055,0.22,0.108,0.446,0.186,0.675c0.098,0.258,0.193,0.512,0.318,0.797
			c0.162,0.367,0.305,0.744,0.455,1.143c0.064,0.175,0.133,0.352,0.202,0.533l0.038,0.101c0.005,0.013,0.01,0.022,0.016,0.036
			c0.013-0.055,0.024-0.105,0.043-0.16c0.021-0.107,0.078-0.23,0.133-0.349c0.023-0.052,0.048-0.103,0.068-0.152
			c0.057-0.172,0.125-0.348,0.188-0.519c0.071-0.188,0.146-0.37,0.194-0.543l0.1-0.373c0.13-0.485,0.252-0.944,0.354-1.407
			c0.043-0.116,0.058-0.21,0.068-0.31c0.008-0.059,0.016-0.117,0.027-0.177c0.021-0.065,0.039-0.11,0.058-0.159
			c0.027-0.064,0.058-0.138,0.076-0.209c0.015-0.074,0.03-0.147,0.047-0.224c0.017-0.071,0.032-0.146,0.049-0.226
			c0.021-0.082,0.048-0.155,0.075-0.229c0.021-0.058,0.043-0.114,0.057-0.172c0.045-0.133,0.065-0.25,0.09-0.366
			c0.033-0.178,0.066-0.359,0.151-0.55c0.06-0.119,0.089-0.233,0.118-0.356c0.07-0.215,0.146-0.422,0.221-0.629
			c0.071-0.201,0.146-0.401,0.209-0.596c0.014-0.059,0.041-0.131,0.068-0.203c0.021-0.059,0.043-0.115,0.059-0.174l0.017-0.043
			c0.016-0.031,0.024-0.064,0.036-0.1c0.033-0.106,0.084-0.27,0.252-0.354c0.082-0.04,0.168-0.061,0.26-0.061
			c0.314,0,0.585,0.248,0.628,0.469C119.611,89.246,119.516,89.419,119.438,89.559z M130.395,93.498
			c0.021,0.314,0.016,0.63,0.008,0.936c-0.004,0.15-0.008,0.301-0.008,0.451c0.147,2.455,0.147,5.207,0,8.402
			c0,0.218,0.008,0.451,0.018,0.688c0.009,0.238,0.018,0.479,0.018,0.707c0,0.646-0.009,1.332-0.018,2.026
			c-0.01,0.71-0.018,1.429-0.018,2.122v1.372c0,0.104,0.002,0.209,0.004,0.315c0.006,0.338,0.014,0.686-0.039,1.021l-0.01,0.067
			l-0.05,0.047c-0.142,0.143-0.374,0.232-0.596,0.232c-0.104,0-0.2-0.02-0.287-0.058l-0.047-0.021l-0.032-0.039
			c-0.188-0.229-0.127-0.461-0.08-0.631c0.014-0.05,0.026-0.102,0.033-0.152c0.021-0.342,0.014-0.801,0.006-1.283
			c-0.004-0.248-0.008-0.5-0.008-0.744v-2.775c0-0.377-0.012-0.754-0.021-1.129c-0.016-0.562-0.031-1.145-0.011-1.721
			c0.063-1.195,0.072-2.497,0.079-3.756c0.003-0.645,0.007-1.289,0.018-1.924c0-0.223-0.008-0.447-0.017-0.674
			c-0.008-0.23-0.017-0.463-0.017-0.692c0-0.224-0.016-0.438-0.031-0.655c-0.018-0.225-0.032-0.449-0.032-0.686
			c-0.032-0.465-0.032-0.939-0.032-1.399c0-0.468,0-0.911-0.033-1.36c-0.014-0.401-0.01-0.799-0.008-1.192
			c0.006-0.455,0.01-0.925-0.015-1.386c-0.051-0.004-0.104-0.004-0.161-0.004c-0.078,0.021-0.342,0.016-0.543,0.008
			c-0.078-0.004-0.15-0.008-0.208-0.008c-0.19,0-0.354,0.004-0.512,0.008c-0.302,0.008-0.579,0.015-0.97-0.008
			c-0.276-0.029-0.721-0.08-0.721-0.602c0-0.273,0.223-0.412,0.658-0.412c0.062,0,0.125,0.002,0.188,0.004
			c0.195,0.006,0.342-0.001,0.502-0.012c0.135-0.009,0.271-0.018,0.43-0.018c0.872,0.021,1.499,0.016,2.216,0.008
			c0.515-0.006,1.097-0.028,1.779,0.009c0.151,0.008,0.303,0.017,0.446,0.017l0.062-0.008c0.319-0.033,0.543-0.039,0.799,0.044
			c0.099,0.017,0.181,0.087,0.242,0.21l0.031,0.064l-0.015,0.07c-0.011,0.043-0.012,0.092-0.016,0.137
			c-0.009,0.143-0.021,0.318-0.172,0.42l-0.046,0.031l-0.056,0.004c-1.316,0.1-1.64,0.098-2.746,0.07
			c-0.002,0.377-0.01,0.76-0.018,1.146c-0.008,0.456-0.017,0.912-0.017,1.353C130.328,92.592,130.361,93.053,130.395,93.498z
			 M140.889,111.575c0.002,0.235-0.271,0.293-0.377,0.313c-0.021,0.006-0.041,0.008-0.057,0.014
			c-0.044,0.021-0.129,0.061-0.23,0.061c-0.101,0-0.188-0.037-0.258-0.072c-0.246-0.123-0.246-0.438-0.246-0.74
			c0-0.114-0.027-0.256-0.057-0.392c-0.014-0.067-0.027-0.133-0.039-0.196c-0.348-2.555-0.721-5.317-1.092-8.283
			c-0.77-0.137-1.812-0.064-2.758,0.027l-0.268,0.024c-0.092,0.271-0.146,0.556-0.207,0.856c-0.021,0.107-0.044,0.22-0.066,0.33
			c-0.03,0.155-0.062,0.35-0.094,0.571c0.002,0.085-0.029,0.17-0.059,0.245l-0.02,0.055c-0.022,0.161-0.041,0.355-0.057,0.555
			c-0.018,0.201-0.033,0.406-0.066,0.619l-0.032,0.201c-0.021,0.117-0.043,0.236-0.063,0.385c-0.025,0.138-0.047,0.271-0.066,0.414
			c-0.034,0.23-0.069,0.471-0.133,0.719l-0.016,0.042c-0.021,0.042-0.044,0.108-0.044,0.168l-0.004,0.044
			c-0.036,0.163-0.065,0.339-0.099,0.516c-0.057,0.322-0.113,0.655-0.2,0.938c-0.027,0.138-0.093,0.341-0.173,0.54
			c-0.014,0.047-0.031,0.134-0.053,0.221l-0.035,0.145c-0.016,0.063-0.021,0.129-0.029,0.203c-0.008,0.069-0.018,0.146-0.03,0.236
			c-0.036,0.253-0.106,0.527-0.206,0.791c-0.031,0.068-0.044,0.146-0.055,0.225c-0.021,0.152-0.047,0.342-0.208,0.455
			c-0.104,0.094-0.247,0.144-0.425,0.144c-0.166,0-0.271-0.063-0.379-0.136c-0.094-0.068-0.146-0.155-0.162-0.258
			c-0.02-0.135,0.029-0.279,0.146-0.434c0.057-0.059,0.057-0.188,0.057-0.266c0-0.229,0.078-0.433,0.146-0.608
			c0.034-0.088,0.067-0.173,0.089-0.259c0.023-0.1,0.039-0.197,0.055-0.295c0.023-0.164,0.049-0.336,0.117-0.512
			c0.01-0.053,0.037-0.123,0.063-0.197c0.022-0.06,0.044-0.115,0.059-0.174c0.039-0.184,0.068-0.391,0.099-0.604
			c0.041-0.292,0.084-0.598,0.158-0.883c0.008-0.073,0.041-0.135,0.063-0.174v-0.006l0.022-0.045
			c-0.008,0.015-0.012-0.021-0.016-0.043c-0.004-0.039-0.009-0.082-0.009-0.125v-0.05l0.071-0.163
			c0.037-0.152,0.06-0.285,0.06-0.375l0.006-0.051c0.039-0.154,0.062-0.283,0.062-0.374l0.006-0.051
			c0.025-0.104,0.025-0.259,0.025-0.406c0-0.091,0.021-0.174,0.039-0.246c0.014-0.055,0.025-0.104,0.025-0.146l0.011-0.065
			c0.009-0.022,0.003-0.063-0.002-0.106c-0.005-0.041-0.009-0.082-0.009-0.121l0.007-0.051c0.013-0.043,0.028-0.094,0.052-0.148
			c0.041-0.107,0.092-0.245,0.074-0.355L134,104.184l0.008-0.037c0.064-0.291,0.122-0.592,0.178-0.892
			c0.06-0.305,0.116-0.608,0.184-0.905c0.031-0.144,0.055-0.295,0.078-0.445c0.025-0.157,0.052-0.316,0.085-0.469
			c0.053-0.295,0.104-0.603,0.153-0.906c0.102-0.6,0.203-1.221,0.334-1.834c0.099-0.577,0.194-1.197,0.293-1.817
			c0.104-0.627,0.203-1.262,0.306-1.896l0.282-1.762c0.043-0.229,0.092-0.447,0.141-0.668c0.062-0.296,0.132-0.599,0.188-0.935
			c0.033-0.231,0.066-0.401,0.133-0.669c0.055-0.379,0.088-0.842,0.115-1.249l0.012-0.152c0.011-0.099,0.011-0.192,0.011-0.284
			c0-0.222,0-0.449,0.123-0.634l0.037-0.056l0.062-0.024c0.346-0.131,0.824-0.094,1.057,0.103l0.055,0.065
			c0.072,0.148,0.064,0.334,0.061,0.498c-0.002,0.041-0.006,0.081-0.006,0.118c-0.021,0.324,0.021,0.693,0.061,1.02
			c0.016,0.131,0.029,0.256,0.039,0.367c0.031,0.358,0.063,0.719,0.098,1.11l0.324,1.942c0.117,0.317,0.328,1.011,0.328,1.666
			c0,0.264,0.056,0.528,0.113,0.81c0.028,0.146,0.06,0.289,0.082,0.435c0.002,0.047,0.012,0.09,0.018,0.113
			c0.009,0.042,0.018,0.077,0.018,0.114c0.023,0.225,0.049,0.526,0.073,0.827l0.024,0.298c0.015,0.118,0.037,0.243,0.062,0.371
			c0.024,0.136,0.05,0.27,0.065,0.403l0.49,3.394c0.064,0.575,0.139,1.146,0.213,1.718c0.071,0.572,0.146,1.146,0.213,1.719
			c0.179,1.254,0.299,2.146,0.424,3.268c0.051,0.188,0.074,0.423,0.102,0.67c0.023,0.216,0.047,0.438,0.092,0.648
			c0.021,0.109,0.043,0.219,0.068,0.332C140.861,110.881,140.941,111.249,140.889,111.575z M147.893,95.704
			c-0.029,0.209-0.061,0.394-0.092,0.577l-0.016,0.103c-0.033,0.2-0.067,0.409-0.141,0.556c-0.022,0.043-0.035,0.082-0.047,0.117
			c-0.022,0.073-0.052,0.156-0.123,0.229c-0.037,0.037-0.066,0.091-0.099,0.147c-0.048,0.088-0.106,0.194-0.216,0.264
			c-0.041,0.098-0.135,0.158-0.174,0.184c-0.012,0.01-0.025,0.018-0.036,0.026c-0.151,0.204-0.406,0.427-0.652,0.641l-0.173,0.151
			c-0.104,0.102-0.248,0.169-0.379,0.229c-0.062,0.028-0.122,0.057-0.176,0.088l-0.038,0.023c-0.021,0.021-0.048,0.039-0.072,0.051
			c-0.088,0.059-0.179,0.087-0.26,0.113c-0.062,0.018-0.115,0.036-0.167,0.062c-0.104,0.092-0.221,0.121-0.332,0.148
			c-0.047,0.012-0.098,0.025-0.151,0.044c-0.026,0.009-0.056,0.026-0.089,0.046c-0.045,0.027-0.104,0.061-0.172,0.085
			c-0.092,0.03-0.173,0.026-0.234,0.026c-0.016,0.023-0.029,0.043-0.048,0.061c0,1.45-0.001,2.828-0.03,4.323
			c0.006,0.002,0.026,0.069,0,0.163c0.002,0.048,0.008,0.104,0.014,0.161c0.009,0.098,0.019,0.198,0.019,0.292
			c0.034,0.254,0.034,0.533-0.002,0.779c-0.039,1.129-0.017,2.271,0.007,3.48c0.014,0.727,0.028,1.461,0.028,2.205
			c0.001,0.009,0.013,0.037,0.021,0.056c0.033,0.082,0.104,0.253-0.027,0.431c-0.045,0.047-0.062,0.072-0.082,0.098
			c-0.03,0.041-0.062,0.081-0.104,0.121l-0.07,0.046c-0.088,0.036-0.209,0.076-0.352,0.076c-0.115,0-0.229-0.027-0.342-0.083
			c-0.302-0.129-0.259-0.479-0.23-0.708c0.008-0.068,0.019-0.136,0.019-0.197c0.019-0.351,0.019-0.729,0.019-1.116
			c0-0.39,0-0.785,0.017-1.146c0-0.15-0.005-0.333-0.007-0.529c-0.008-0.444-0.019-0.95,0.007-1.43v-0.317
			c0-0.104-0.005-0.186-0.009-0.259c-0.008-0.14-0.016-0.271,0.01-0.454l-0.001-2.486c-0.017-0.554-0.009-1.097,0-1.619
			c0.007-0.521,0.016-1.057,0-1.614c-0.023-0.093-0.015-0.177-0.007-0.253c0.002-0.032,0.007-0.068,0.007-0.106
			c0-0.334,0-0.597,0.032-0.966c0-0.114-0.008-0.27-0.017-0.436c-0.009-0.196-0.019-0.41-0.019-0.625
			c-0.022-0.887-0.016-1.98-0.008-2.945c0.004-0.463,0.008-0.903,0.008-1.299v-0.195c-0.032-0.385-0.032-0.825,0-1.258
			c0-0.307-0.006-0.633-0.008-0.967c-0.008-0.684-0.016-1.388,0.008-2.094l0.003-0.095l0.071-0.06
			c0.17-0.144,0.375-0.162,0.535-0.162c0.062,0,0.129,0.005,0.194,0.008c0.062,0.004,0.124,0.007,0.188,0.007
			c0.362,0,0.646,0.106,0.92,0.209c0.539,0.192,0.974,0.585,1.252,0.865c0.649,0.649,1.078,1.254,1.385,1.958
			c0.363,0.875,0.572,1.938,0.572,2.926C148.025,94.902,147.958,95.311,147.893,95.704z"/>
		<path fill="#FFFFFF" d="M137.73,96.617c-0.133-1.24-0.371-2.439-0.586-3.452c-0.025-0.104-0.041-0.229-0.053-0.368
			c-0.055,0.325-0.111,0.659-0.166,0.985c-0.066,0.396-0.132,0.778-0.188,1.106c-0.098,0.616-0.195,1.237-0.26,1.848
			c-0.029,0.195-0.076,0.365-0.119,0.529c-0.058,0.209-0.108,0.407-0.108,0.59c0,0.403-0.092,0.75-0.181,1.084l-0.055,0.209
			l-0.091,0.559c-0.032,0.213-0.067,0.429-0.103,0.634c-0.016,0.095-0.031,0.19-0.049,0.284c-0.039,0.229-0.078,0.449-0.086,0.66
			c0.101-0.01,0.199-0.021,0.299-0.035c0.457-0.059,0.962-0.079,1.508-0.066c0.301,0.004,0.604,0.01,0.887,0.002
			c-0.062-0.459-0.127-0.918-0.188-1.379C138.053,98.75,137.904,97.659,137.73,96.617z"/>
		<path fill="#FFFFFF" d="M106.439,101.605c0.004,0.134,0.006,0.267,0.006,0.397c-0.021,0.267-0.014,0.501-0.006,0.749
			c0.004,0.129,0.006,0.262,0.006,0.395c0,0.144,0.01,0.287,0.017,0.43c0.011,0.15,0.019,0.303,0.019,0.453
			c-0.019,0.104-0.035,0.166-0.053,0.226c-0.023,0.083-0.046,0.156-0.046,0.231c0,0.131,0.003,0.26,0.007,0.389
			c0.008,0.257,0.016,0.521-0.008,0.773c0.001,0.101-0.008,0.211-0.016,0.322c-0.01,0.102-0.018,0.201-0.018,0.312
			c-0.021,0.163-0.015,0.301-0.008,0.446c0.003,0.08,0.008,0.16,0.008,0.238c-0.017,0.215,0,0.419,0.018,0.641
			c0.016,0.225,0.033,0.455,0.016,0.684c0.001,0.3-0.007,0.616-0.014,0.934c-0.014,0.562-0.025,1.137,0.002,1.717
			c0.174-0.012,0.312-0.062,0.472-0.123c0.06-0.021,0.118-0.043,0.179-0.062c0.225-0.08,0.426-0.178,0.623-0.271
			c0.094-0.045,0.188-0.09,0.279-0.131c0.133-0.111,0.273-0.213,0.415-0.314c0.3-0.217,0.583-0.42,0.763-0.697
			c0.317-0.542,0.512-1.246,0.657-1.861c0.067-0.237,0.13-0.453,0.16-0.668c0.251-1.112,0.229-2.28-0.058-3.139
			c-0.232-0.695-0.689-1.287-1.358-1.756c-0.58-0.406-1.229-0.8-2.062-0.95C106.427,101.174,106.434,101.385,106.439,101.605z"/>
		<path fill="#FFFFFF" d="M110.212,92.96c-0.06-0.228-0.118-0.495-0.153-0.666c-0.035-0.058-0.043-0.118-0.045-0.17
			c-0.111-0.233-0.223-0.394-0.35-0.579c-0.042-0.059-0.085-0.121-0.129-0.188c-0.066-0.072-0.105-0.158-0.135-0.223l-0.02-0.043
			c-0.016-0.014-0.056-0.049-0.093-0.083c-0.062-0.057-0.132-0.12-0.187-0.212c-0.059-0.061-0.111-0.128-0.168-0.195
			c-0.088-0.11-0.172-0.215-0.269-0.278l-0.058-0.058c-0.031-0.048-0.123-0.13-0.185-0.185c-0.016-0.015-0.028-0.026-0.043-0.038
			c-0.04-0.007-0.093-0.025-0.142-0.072c-0.027-0.029-0.086-0.087-0.117-0.113l-0.021-0.012c-0.453-0.227-1.162-0.486-1.75-0.527
			c0.022,0.6,0.012,1.187,0.002,1.755c-0.016,0.715-0.025,1.392,0.023,2.065c0.018,0.24,0.009,0.471,0,0.69
			c-0.008,0.213-0.016,0.415,0,0.614c0.001,0.123,0.02,0.222,0.032,0.316c0.018,0.109,0.032,0.215,0.032,0.319
			c0,0.347,0,0.705,0.031,0.953c0.002,0.087-0.009,0.147-0.019,0.209c-0.007,0.036-0.015,0.073-0.015,0.112
			c0,0.354,0.004,0.715,0.008,1.076c0.008,0.707,0.016,1.437-0.006,2.161c0.02,0.046,0.022,0.093,0.022,0.132
			c0.037,0.004,0.076,0.006,0.114,0.006c0.312,0,0.622-0.142,0.896-0.266c0.319-0.145,0.652-0.375,1-0.688
			c0.25-0.223,0.426-0.5,0.629-0.819l0.053-0.084c0.199-0.308,0.335-0.647,0.479-1.009c0.062-0.154,0.123-0.311,0.19-0.465
			c0.246-0.549,0.568-1.379,0.537-2.26c0-0.274-0.061-0.607-0.116-0.931L110.212,92.96z"/>
		<path fill="#FFFFFF" d="M146.812,93.708c-0.023-0.489-0.047-0.952-0.23-1.349l-0.104-0.238c-0.086-0.201-0.168-0.391-0.28-0.598
			c-0.025-0.049-0.073-0.104-0.115-0.152c-0.058-0.064-0.11-0.127-0.146-0.197c-0.031-0.045-0.047-0.09-0.057-0.129
			c-0.027-0.031-0.062-0.061-0.088-0.081c-0.021-0.019-0.04-0.034-0.053-0.046l-0.034-0.034l-0.017-0.047
			c-0.021-0.062-0.064-0.133-0.111-0.179c-0.295-0.402-0.576-0.655-0.934-0.848c-0.233-0.131-0.455-0.207-0.722-0.246
			c-0.021,0.362-0.01,0.713,0.003,1.078c0.008,0.223,0.016,0.448,0.016,0.682c0,0.438,0.004,0.877,0.009,1.314
			c0.007,0.858,0.015,1.748-0.009,2.578c0,0.282,0.009,0.569,0.017,0.862c0.009,0.304,0.019,0.61,0.019,0.928
			c0,0.294,0.018,0.597,0.032,0.896c0.013,0.207,0.022,0.414,0.028,0.613c0.035-0.012,0.076-0.02,0.121-0.02
			c0.006-0.002,0.027-0.018,0.048-0.029c0.065-0.039,0.165-0.102,0.312-0.102c0.106,0,0.276-0.105,0.401-0.184l0.231-0.135
			c0.16-0.09,0.298-0.167,0.41-0.257c0.258-0.201,0.479-0.44,0.676-0.737c0.105-0.158,0.236-0.373,0.298-0.621
			c0.248-0.945,0.342-1.769,0.289-2.514L146.812,93.708z"/>
		<path fill="#FFFFFF" d="M89.897,96.984c0.157-0.123,0.295-0.312,0.442-0.514l0.105-0.145c0.376-0.503,0.407-1.207,0.383-1.896
			c-0.016-0.033-0.034-0.078-0.034-0.133c-0.03-0.338-0.063-0.63-0.096-0.889c-0.001-0.035-0.012-0.061-0.02-0.079
			c-0.02-0.05-0.048-0.12-0.048-0.208c-0.029-0.159-0.062-0.354-0.094-0.516c-0.022-0.061-0.051-0.119-0.08-0.176
			c-0.04-0.092-0.066-0.16-0.09-0.224c-0.044-0.112-0.075-0.192-0.131-0.286c-0.084-0.189-0.21-0.389-0.376-0.596
			c-0.053-0.072-0.094-0.129-0.135-0.186c-0.04-0.058-0.081-0.115-0.131-0.182c-0.153-0.178-0.373-0.436-0.591-0.518l-0.044-0.021
			c-0.064-0.043-0.148-0.102-0.233-0.16c-0.094-0.064-0.227-0.158-0.289-0.197c-0.056-0.002-0.118-0.012-0.179-0.054
			c-0.057-0.022-0.106-0.065-0.155-0.112c-0.108-0.059-0.19-0.119-0.264-0.174c-0.022-0.016-0.042-0.031-0.062-0.046
			c-0.004,0.099-0.001,0.203,0.002,0.31c0.002,0.076,0.004,0.151,0.004,0.229c0.033,0.318,0.025,0.666,0.017,1.003
			c-0.007,0.329-0.017,0.671,0.017,1.002c0,0.668,0.033,1.363,0.064,2.034c0.017,0.309-0.004,0.615-0.022,0.912
			c-0.022,0.352-0.044,0.712-0.011,1.07c0.034,0.341,0.018,0.681,0.002,1.011c-0.014,0.256-0.026,0.519-0.015,0.78
			c0.431-0.051,0.823-0.264,1.175-0.453c0.231-0.1,0.382-0.189,0.571-0.315C89.697,97.137,89.809,97.027,89.897,96.984z"/>
	</g>
	<g>
		<path fill="#FFFFFF" d="M53.131,85.494c-0.042-0.01-0.075-0.012-0.09-0.014l-0.001,0.002c-0.029-0.008-0.06-0.015-0.087-0.015
			c-0.072,0.001-0.112,0.017-0.141,0.021c-0.05,0-0.101,0-0.15,0c-0.106-0.007-0.208-0.011-0.309-0.011
			c-0.284,0-0.547,0.021-0.802,0.021c-0.094,0-0.188-0.002-0.28-0.009l0,0c-0.127-0.012-0.251-0.016-0.37-0.016
			c-0.12,0-0.234,0.004-0.344,0.004l0,0l-0.073-0.004c-0.114,0-0.205,0.016-0.277,0.015c-0.118-0.011-0.231-0.011-0.328-0.011
			c-0.182,0-0.396,0-0.555,0c-0.033,0-0.068,0-0.097-0.002l-0.054-0.004l-0.02-0.007h-0.021c-0.015,0.001-0.042-0.002-0.077-0.002
			c-0.04,0-0.094,0.001-0.159,0.033c-0.068,0.03-0.127,0.11-0.14,0.187l-0.001,0.004l-0.001,0.004l-0.004,0.051
			c-0.004,0.07,0.038,0.146,0.067,0.173l0.027,0.026l0,0l0,0c0.029,0.041,0.074,0.069,0.112,0.082
			c0.04,0.015,0.072,0.017,0.099,0.017c0.05-0.001,0.081-0.007,0.087-0.006l0,0c0.07,0.005,0.147,0.009,0.224,0.009
			c0.071,0,0.137-0.004,0.197-0.008l0.064,0.009l0.012,0.001h0.013c0.082,0,0.158-0.005,0.226-0.004
			c0.034,0,0.065,0.001,0.096,0.004h0.003h0.004c0.097,0.006,0.188,0.006,0.272,0.006c0.086,0,0.163,0,0.234,0.006
			c0.122,0.008,0.231,0.008,0.332,0.012c-0.001,0.109-0.004,0.22-0.004,0.33c0,0.336,0.006,0.672,0.006,0.986
			c0,0.479,0.011,0.953,0.011,1.413c0,0.197-0.011,0.401-0.011,0.601c-0.001,0.178-0.006,0.231-0.012,0.278
			c-0.006,0.05-0.014,0.109-0.014,0.237c0,0.041,0.001,0.092,0.002,0.154l0.001,0.017l0.003,0.015l0,0
			c0.002,0.016,0.005,0.07,0.005,0.137c0,0.115-0.005,0.271-0.01,0.404c-0.005,0.137-0.01,0.248-0.01,0.295h0.001
			c-0.005,0.037-0.01,0.075-0.011,0.112c-0.001,0.041-0.001,0.079-0.001,0.104c-0.011,0.058-0.014,0.103-0.018,0.113l-0.005,0.018
			V91.3c-0.006,0.107-0.006,0.194-0.006,0.276s0,0.158-0.006,0.256l-0.001,0.02l0.012,0.072c0,0.036,0,0.075-0.001,0.113
			c-0.001,0.041-0.005,0.079-0.007,0.087l-0.009,0.046l0.02,0.061l0,0l-0.003,0.026c-0.003,0.017-0.011,0.038-0.011,0.082v0.005
			v0.006c0.002,0.039,0.003,0.076,0.003,0.115c0,0.152-0.015,0.305-0.015,0.485c0,0.125,0.012,0.229,0.012,0.315v0.01l0.001,0.011
			c0.002,0.021,0.002,0.048,0.002,0.082c0.001,0.065-0.003,0.166,0.046,0.274l0.009,0.02l0.012,0.016
			c0.04,0.053,0.086,0.077,0.13,0.096c0.045,0.018,0.09,0.024,0.14,0.025c0.048-0.001,0.1-0.009,0.152-0.033l0.076-0.037
			l0.019-0.082c0.017-0.074,0.021-0.146,0.021-0.213c0-0.104-0.012-0.197-0.018-0.281c-0.009-0.107-0.013-0.219-0.013-0.332
			c0-0.324,0.029-0.672,0.046-1.045l0,0c0.007-0.088,0.006-0.168,0.007-0.244c-0.001-0.076,0-0.148,0.005-0.219v-0.008v0.008
			c0.006-0.082,0.006-0.164,0.006-0.24c0-0.077,0-0.152,0.006-0.225l0,0v-0.004c0.01-0.213,0.013-0.42,0.013-0.626
			c0-0.559-0.025-1.1-0.025-1.659c0-0.203,0.003-0.41,0.013-0.621V87.93v-0.007c-0.007-0.2-0.011-0.409-0.011-0.62
			c0-0.408,0.011-0.824,0.019-1.226c0.133,0.007,0.276,0.017,0.433,0.019c0.035,0,0.071-0.003,0.107-0.004l0,0
			c0.127,0,0.241-0.011,0.356-0.021c0.011,0.004,0.039,0.011,0.084,0.011c0.11-0.001,0.208-0.022,0.271-0.022
			c0.06,0,0.121,0.01,0.203,0.01c0.027,0,0.06-0.004,0.091-0.01l0,0c0.036,0,0.065-0.004,0.096-0.01
			c0.024-0.006,0.047-0.012,0.074-0.021l0,0c0.027-0.01,0.07-0.018,0.132-0.058c0.029-0.021,0.063-0.054,0.083-0.096
			c0.021-0.041,0.029-0.087,0.029-0.127c0.002-0.058-0.024-0.126-0.064-0.167C53.23,85.516,53.172,85.504,53.131,85.494z"/>
		<path fill="#FFFFFF" d="M57.198,85.656l-0.008-0.029l-0.017-0.025c-0.02-0.028-0.048-0.062-0.089-0.086
			c-0.041-0.026-0.094-0.041-0.143-0.041l-0.01,0.002c-0.03-0.009-0.061-0.014-0.092-0.014c-0.031,0-0.063,0.003-0.102,0.016
			c-0.026,0.01-0.059,0.029-0.088,0.06c-0.035,0.028-0.062,0.063-0.074,0.097c-0.016,0.042-0.019,0.077-0.019,0.108
			c0.002,0.065,0.015,0.114,0.021,0.146c-0.004,0.125-0.006,0.25-0.006,0.372c0,0.437,0.02,0.862,0.02,1.294
			c0,0.07-0.001,0.143-0.002,0.213v0.004c0,0.592-0.047,1.408-0.056,2.035c-0.088,0.004-0.179,0.004-0.277,0.004l0,0
			c-0.152-0.011-0.32-0.011-0.474-0.011c-0.114-0.011-0.216-0.012-0.312-0.012c-0.109-0.011-0.207-0.013-0.292-0.021l-0.009-0.002
			h-0.011c-0.032,0-0.062-0.007-0.123-0.02l-0.018-0.004h-0.018c-0.045,0.001-0.09,0-0.125-0.008l-0.012-0.002l-0.013-0.002
			l-0.071-0.002c-0.151,0.002-0.296,0.021-0.419,0.021c-0.009,0-0.015-0.002-0.022-0.002c-0.001-0.119-0.003-0.246-0.003-0.381
			c0-0.187,0.002-0.382,0.002-0.579c0-0.411-0.003-0.828-0.021-1.171l0,0c-0.012-0.33-0.034-0.681-0.034-1.011V86.6v-0.002
			C54.28,86.466,54.28,86.33,54.28,86.2s0-0.255-0.006-0.363l-0.001-0.01l-0.001-0.011c-0.002-0.002,0-0.047-0.009-0.11
			c-0.005-0.032-0.014-0.073-0.04-0.117c-0.023-0.041-0.067-0.08-0.115-0.103l0.001-0.002c-0.002,0-0.003,0-0.005,0
			c-0.002-0.002-0.003-0.004-0.005-0.004l-0.001,0.002c-0.056-0.024-0.098-0.026-0.139-0.027c-0.034,0-0.067,0.003-0.1,0.01
			c-0.033,0.008-0.064,0.016-0.109,0.043l-0.022,0.016l-0.018,0.021c-0.043,0.052-0.06,0.123-0.059,0.171
			c0.001,0.049,0.01,0.081,0.015,0.104l0.006,0.039c0,0.113-0.011,0.25-0.012,0.396c0.001,0.165,0.023,0.312,0.023,0.44V86.7v0.006
			c0.003,0.048,0.005,0.095,0.005,0.144c0,0.098-0.005,0.201-0.005,0.319v0.007v0.008c0.003,0.041,0.005,0.088,0.005,0.137
			c0,0.096-0.005,0.201-0.005,0.312v0.005v0.002c0.003,0.104,0.005,0.213,0.005,0.326c0,0.227-0.005,0.465-0.005,0.686
			c0,0.313,0.022,0.632,0.022,0.916c0,0.31-0.022,0.623-0.034,0.944v0.003v0.004c0,0.205,0.005,0.404,0.005,0.599
			c0,0.097-0.001,0.192-0.005,0.288c-0.015,0.394-0.028,0.789-0.028,1.188c0,0.232,0.005,0.468,0.018,0.704v0.016l0.004,0.014v0.001
			l-0.008,0.038c-0.005,0.023-0.018,0.058-0.018,0.113c-0.002,0.045,0.018,0.104,0.052,0.153l-0.002,0.001
			c0.002,0.003,0.005,0.004,0.007,0.008c0.002,0.002,0.004,0.006,0.006,0.01l0.002-0.002c0.043,0.054,0.093,0.082,0.14,0.101
			c0.053,0.019,0.104,0.024,0.155,0.024c0.068,0,0.137-0.01,0.207-0.049l0.031-0.019l0.021-0.028
			c0.053-0.064,0.076-0.15,0.075-0.217c-0.005-0.12-0.04-0.189-0.039-0.216l-0.001-0.007l-0.001-0.006l-0.007-0.086
			c0-0.061,0.01-0.131,0.01-0.222c0-0.034-0.004-0.062-0.007-0.088l-0.003-0.022l0.004-0.018l0.006-0.021v-0.021
			c0-0.124-0.015-0.233-0.015-0.327l0.003-0.064v-0.008V92.35c0-0.261,0-0.354,0.012-0.615c0.021-0.489,0.041-0.916,0.069-1.359
			c0.085-0.012,0.167-0.02,0.246-0.02c0.161,0,0.32,0.02,0.502,0.033l0,0C55.224,90.4,55.331,90.4,55.43,90.4
			c0.073-0.002,0.172,0.02,0.294,0.021l0,0c0.004,0,0.008,0,0.011,0h0.001l0,0c0.068,0.005,0.136,0.006,0.201,0.006
			c0.124,0,0.241-0.004,0.349-0.004c0.091,0,0.173,0.006,0.251,0.016c0.002,0.08,0.006,0.16,0.006,0.237
			c0,0.105,0.004,0.212,0.011,0.321l-0.013,0.025l0.003,0.047c0.011,0.195,0.011,0.42,0.011,0.578v0.004v0.004
			c0.002,0.033,0.002,0.062,0.002,0.088c0,0.078-0.005,0.129-0.012,0.191c-0.006,0.063-0.013,0.141-0.013,0.244
			c0,0.11,0.005,0.211,0.005,0.309c0,0.048-0.001,0.096-0.005,0.144v0.002v0.001c-0.011,0.227-0.022,0.467-0.022,0.698
			c0.002,0.069-0.007,0.181,0.052,0.306l0.03,0.061l0.062,0.025c0.032,0.01,0.103,0.051,0.213,0.055c0.047,0,0.107-0.014,0.16-0.047
			c0.003-0.002,0.007-0.002,0.01-0.004c0.034-0.021,0.05-0.045,0.061-0.062c0.035-0.028,0.062-0.062,0.071-0.088
			c0.019-0.047,0.02-0.081,0.02-0.111s-0.005-0.054-0.01-0.077l0.003-0.041c-0.001-0.08-0.019-0.132-0.024-0.158
			c0-0.483,0.028-0.975,0.028-1.478c0-0.127-0.002-0.255-0.007-0.383c0-0.062,0.011-0.128,0.012-0.226
			c-0.001-0.095-0.012-0.186-0.012-0.248c0-0.344-0.011-0.684-0.011-0.996c0-0.114,0.011-0.26,0.011-0.36
			c0-0.037-0.004-0.067-0.008-0.087l-0.003-0.021v-0.004c0-0.232,0.011-0.479,0.021-0.682v-0.002l0.001-0.002
			c0.008-0.249,0.021-0.57,0.021-0.872c0-0.124-0.003-0.244-0.009-0.356l0.006-0.022l0.005-0.021V87.41
			c0-0.114-0.012-0.227-0.012-0.328v-0.003v-0.003c-0.011-0.301-0.011-0.661-0.011-0.989v-0.022l-0.011-0.039
			c0-0.051,0.001-0.103,0.008-0.146l0.003-0.015c0.005-0.013,0.022-0.056,0.022-0.116v-0.021l-0.006-0.021L57.198,85.656z"/>
		<path fill="#FFFFFF" d="M61.647,85.721c-0.009-0.029-0.019-0.066-0.062-0.111l-0.006-0.006l-0.007-0.006
			c-0.137-0.111-0.295-0.127-0.425-0.127c-0.058,0-0.112,0.004-0.163,0.008c-0.036,0-0.1-0.011-0.169-0.012
			c-0.078,0-0.148,0.012-0.212,0.021c-0.034,0-0.096-0.008-0.171-0.01l0,0c-0.004,0-0.007,0-0.011,0H60.42l0,0
			c-0.082-0.006-0.16-0.006-0.227-0.006c-0.071,0-0.132,0-0.175-0.006c-0.099-0.01-0.202-0.013-0.307-0.013
			c-0.167,0-0.339,0.009-0.496,0.022l-0.002,0.002h-0.004h-0.017c-0.035,0.002-0.111-0.021-0.232-0.023h-0.011l-0.01,0.001
			c-0.092,0.011-0.169,0.024-0.221,0.022h-0.031l-0.012-0.002h-0.011c-0.033,0.002-0.095-0.018-0.19-0.021
			c-0.034,0-0.075,0.004-0.118,0.021s-0.088,0.045-0.12,0.084l-0.003,0.004l-0.004,0.006c-0.035,0.045-0.052,0.104-0.051,0.15
			c0.001,0.045,0.011,0.074,0.015,0.09l0.001,0.004l0.002,0.011c0.021,0.14,0.021,0.325,0.021,0.507
			c0.001,0.137,0.012,0.218,0.012,0.316c0.001,0.104-0.021,0.226-0.022,0.361c0,0.09,0.012,0.146,0.011,0.192v0.55l0.001,0.007
			l0.002,0.06c0.001,0.07-0.014,0.14-0.014,0.267v0.34c0,0.169,0,0.347-0.012,0.509v0.006v0.164l0,0
			c-0.004,0.043-0.005,0.084-0.005,0.123c0,0.09,0.005,0.172,0.005,0.238l0,0c-0.011,0.227-0.012,0.438-0.012,0.646l0,0
			c-0.011,0.244-0.011,0.494-0.011,0.722c0,0.699-0.012,1.41-0.034,2.052l0,0c-0.011,0.119-0.012,0.241-0.012,0.35
			c-0.004,0.037-0.012,0.082-0.012,0.14c-0.002,0.08,0.022,0.192,0.102,0.278l0.027,0.031l0.039,0.017
			c0.057,0.024,0.131,0.049,0.213,0.047c0.104-0.004,0.16-0.026,0.17-0.022c0.062,0,0.151,0.01,0.253,0.012
			c0.098,0.012,0.19,0.012,0.276,0.012c0.185,0.012,0.355,0.012,0.534,0.012c0.069-0.002,0.106-0.013,0.124-0.012h0.396
			c0.074-0.001,0.12-0.014,0.136-0.012l0,0c0.246,0.012,0.505,0.022,0.734,0.022c0.026,0.005,0.051,0.011,0.076,0.011
			c0.075,0,0.148-0.017,0.218-0.062c0.069-0.043,0.133-0.135,0.132-0.239c0.001-0.089-0.045-0.181-0.114-0.232
			c-0.068-0.053-0.15-0.072-0.231-0.072l-0.059,0.005c-0.035-0.005-0.069-0.01-0.101-0.01c-0.092,0.001-0.167,0.015-0.233,0.021
			c-0.049,0-0.105-0.005-0.174-0.005c-0.028,0-0.059,0.003-0.09,0.005l0,0h-0.301c-0.079-0.002-0.156-0.002-0.232-0.002
			c-0.308,0-0.596,0.014-0.869,0.014c-0.136,0-0.261-0.006-0.373-0.026c-0.012-0.228-0.02-0.464-0.02-0.704
			c0-0.288,0.009-0.579,0.025-0.857l0.003-0.047l-0.02-0.037c0.005-0.039,0.008-0.072,0.014-0.096l0.003-0.018v-0.018
			c0-0.461,0.012-0.656,0.034-1.076v-0.004v-0.006c0-0.021-0.002-0.039-0.003-0.057c0.043,0,0.104,0.008,0.177,0.009l0.046-0.003
			c0.01,0,0.042,0.005,0.094,0.006c0.013,0,0.028-0.003,0.044-0.004l0.048,0.008l0.015,0.002h0.015c0.036,0,0.063-0.006,0.081-0.009
			l0.016-0.003c0.097,0,0.187-0.002,0.267-0.002c0.083,0,0.156,0.002,0.223,0.012l0,0l0.066,0.006c0.059,0,0.093-0.008,0.108-0.006
			h0.013l0.015,0.002h0.015c0.084,0,0.169,0.006,0.264,0.006c0.042,0,0.087-0.002,0.132-0.006l0,0h0.004c0.004,0,0.007,0,0.011,0
			l0,0c0.064-0.002,0.115-0.013,0.133-0.012h0.01l0.01-0.001l0.025-0.001c0.037-0.001,0.093,0.01,0.171,0.012
			c0.021,0,0.044-0.006,0.066-0.008c0.05,0.01,0.127,0.032,0.237,0.032h0.042l0.038-0.019c0.02-0.012,0.056-0.021,0.111-0.058
			c0.027-0.019,0.061-0.047,0.085-0.088c0.021-0.035,0.03-0.075,0.033-0.113h0.001l0.002-0.022l0,0l0,0l0.001-0.016
			c0.002-0.104-0.064-0.191-0.129-0.229c-0.064-0.042-0.132-0.06-0.198-0.066c-0.115-0.013-0.233-0.012-0.303-0.012h-0.316
			c-0.155,0-0.313,0.011-0.452,0.011c-0.126,0-0.249-0.011-0.383-0.011c-0.034-0.005-0.068-0.009-0.103-0.009
			c-0.03,0-0.061,0.004-0.092,0.009l0,0h-0.045c-0.142,0-0.288,0.007-0.425,0.007c-0.048,0-0.094-0.001-0.138-0.004
			c-0.008-0.441-0.008-1.146-0.008-1.559c0-0.235,0-0.312-0.012-0.539v-0.008v0.006c-0.005-0.094-0.008-0.188-0.008-0.282
			c0-0.285,0.02-0.579,0.02-0.917c0-0.124-0.005-0.229-0.005-0.332c0.004,0,0.005,0.001,0.009,0.001l0.052-0.004h0.001l0.003-0.001
			c0.102-0.02,0.186-0.024,0.267-0.024c0.188-0.001,0.38,0.038,0.696,0.038h0.238l0,0c0.026,0.003,0.054,0.006,0.078,0.006
			c0.063-0.001,0.115-0.006,0.147-0.006c0.135,0,0.249-0.011,0.351-0.011c0.059-0.003,0.146,0.026,0.276,0.032l0,0
			c0.123,0.013,0.231,0.013,0.344,0.013l0.061,0.005c0.044,0,0.09-0.006,0.139-0.023c0.047-0.02,0.094-0.055,0.124-0.097
			l0.018-0.022l0.01-0.027c0.013-0.04,0.016-0.073,0.016-0.109L61.647,85.721z"/>
	</g>
</g>
</svg>
