<?xml version="1.0" encoding="utf-8"?>
<!-- Generator: Adobe Illustrator 16.2.0, SVG Export Plug-In . SVG Version: 6.00 Build 0)  -->
<!DOCTYPE svg PUBLIC "-//W3C//DTD SVG 1.1//EN" "http://www.w3.org/Graphics/SVG/1.1/DTD/svg11.dtd">
<svg version="1.1" id="Layer_1" xmlns="http://www.w3.org/2000/svg" xmlns:xlink="http://www.w3.org/1999/xlink" x="0px" y="0px"
	 width="200px" height="200px" viewBox="0 0 200 200" enable-background="new 0 0 200 200" xml:space="preserve">
<g>
	<polygon fill="#FFFFFF" points="106.982,91.843 106.982,92.021 169.646,92.021 169.646,107.98 107.16,107.98 107.16,91.843 
		106.982,91.843 106.982,92.021 106.982,91.843 106.807,91.843 106.807,108.335 170,108.335 170,91.665 106.807,91.665 
		106.807,91.843 	"/>
	<g>
		<path fill="#FFFFFF" d="M152.135,99.012c0-0.591-0.458-0.934-1.266-0.934h-1.172v1.867h1.338
			C151.645,99.945,152.135,99.611,152.135,99.012z"/>
		<polygon fill="#FFFFFF" points="143.755,100.886 145.782,100.886 144.768,98.046 		"/>
		<path fill="#FFFFFF" d="M106.982,91.843v16.315h62.841V91.843H106.982z M113.241,102.715c-0.867,0-1.747-0.339-2.273-0.984
			l0.703-0.479c0.429,0.532,1.056,0.772,1.737,0.772c0.488,0,1.324-0.154,1.324-0.812c0-0.545-0.559-0.676-1.268-0.832l-0.629-0.137
			c-0.913-0.197-1.604-0.498-1.604-1.389c0-1.026,1.031-1.558,2.072-1.558c0.893,0,1.629,0.297,2.184,0.937l-0.668,0.48
			c-0.312-0.465-0.854-0.725-1.523-0.725c-0.604,0-1.197,0.216-1.197,0.722c0,0.291,0.184,0.463,0.418,0.573
			c0.116,0.055,0.252,0.097,0.395,0.133c0.143,0.037,0.296,0.068,0.457,0.104l0.691,0.146c0.84,0.173,1.541,0.479,1.541,1.4
			C115.602,102.266,114.416,102.715,113.241,102.715z M122.582,102.579h-1.229l-1.039-4.103l-1.078,4.103h-1.229l-1.266-5.147h0.897
			l1.02,4.449l1.16-4.449h1.022l1.113,4.449l1.012-4.449h0.88L122.582,102.579z M126.344,102.578h-0.832v-5.146h0.832V102.578z
			 M130.352,102.715c-0.865,0-1.748-0.339-2.271-0.984l0.699-0.479c0.429,0.532,1.058,0.772,1.74,0.772
			c0.486,0,1.323-0.154,1.323-0.812c0-0.545-0.558-0.676-1.267-0.832l-0.628-0.137c-0.912-0.197-1.605-0.498-1.605-1.389
			c0-1.026,1.031-1.558,2.072-1.558c0.894,0,1.63,0.297,2.185,0.937l-0.668,0.48c-0.312-0.465-0.852-0.725-1.522-0.725
			c-0.604,0-1.198,0.216-1.198,0.722c0,0.291,0.184,0.463,0.418,0.573c0.116,0.055,0.249,0.097,0.393,0.133
			c0.143,0.037,0.299,0.068,0.459,0.104l0.691,0.146c0.844,0.173,1.541,0.479,1.541,1.4
			C132.711,102.266,131.525,102.715,130.352,102.715z M136.229,102.715c-0.867,0-1.746-0.339-2.271-0.984l0.701-0.479
			c0.427,0.532,1.057,0.772,1.738,0.772c0.487,0,1.324-0.154,1.324-0.812c0-0.545-0.558-0.676-1.267-0.832l-0.629-0.137
			c-0.914-0.197-1.606-0.498-1.606-1.389c0-1.026,1.032-1.558,2.074-1.558c0.893,0,1.63,0.297,2.184,0.937l-0.668,0.48
			c-0.312-0.465-0.851-0.725-1.521-0.725c-0.604,0-1.199,0.216-1.199,0.722c0,0.291,0.186,0.463,0.418,0.573
			c0.114,0.055,0.25,0.097,0.395,0.133c0.143,0.037,0.297,0.068,0.457,0.104l0.691,0.146c0.844,0.173,1.54,0.479,1.54,1.4
			C138.588,102.266,137.402,102.715,136.229,102.715z M146.352,102.579l-0.349-1.046h-2.468l-0.35,1.046h-0.922l1.928-5.147h1.151
			l1.929,5.147H146.352z M152.107,102.578l-1.151-1.984h-1.259v1.984h-0.871v-5.146h2.352c1.211,0,1.877,0.646,1.877,1.506
			c0,0.571-0.209,0.91-0.438,1.121c-0.119,0.105-0.246,0.183-0.362,0.237c-0.117,0.056-0.225,0.093-0.291,0.114l-0.145,0.052
			l1.291,2.116H152.107z M160.77,102.579h-0.867v-4.501l-1.485,4.501h-0.991l-1.511-4.509v4.509h-0.854v-5.147h1.519l1.37,4.316
			l1.355-4.316h1.465V102.579z M165.059,100.561v2.021h-0.891v-2.021l-1.914-3.127h0.975l1.385,2.346L166,97.434h0.977
			L165.059,100.561z"/>
	</g>
	<polygon fill="#FFFFFF" points="30.178,91.843 30.178,92.021 108.087,92.021 108.087,107.98 30.356,107.98 30.356,91.843 
		30.178,91.843 30.178,92.021 30.178,91.843 30,91.843 30,108.335 108.439,108.335 108.439,91.665 30,91.665 30,91.843 	"/>
	<path fill="#FFFFFF" d="M42.114,95.766c-0.503-0.252-1.022-0.49-1.304-0.547c-0.53-0.104-0.936,0.318-1,0.574l-0.014,0.053
		l-0.014-0.053c-0.063-0.256-0.46-0.679-0.991-0.574c-0.28,0.057-0.802,0.295-1.304,0.547c-0.494,0.244-0.971,0.502-1.184,0.604
		c0.289,0.944,0.442,1.93,0.448,2.978h0.711v-0.539h1.616v-1.613h1.411v1.613h1.613v0.539h0.747
		c0.005-1.048,0.159-2.035,0.447-2.979C43.085,96.268,42.609,96.01,42.114,95.766 M39.797,104.82
		c0.97-0.916,2.176-1.803,3.486-2.258c-0.13-0.451-0.262-1.08-0.34-1.703c-0.069-0.569-0.087-1.096-0.093-1.178h-0.746v0.537h-1.613
		v1.615H39.08v-1.615h-1.616v-0.537h-0.713c-0.025,0.963-0.188,2.027-0.437,2.881C37.626,103.02,38.828,103.904,39.797,104.82
		 M35.983,99.557c0-1.256-0.21-2.461-0.574-3.595l0.006-0.017c0.294-0.143,0.889-0.448,1.488-0.771
		c0.649-0.351,1.363-0.68,1.725-0.752c0.47-0.094,0.909,0.048,1.173,0.452c0.263-0.404,0.7-0.546,1.172-0.452
		c0.362,0.072,1.076,0.401,1.725,0.752c0.6,0.322,1.194,0.63,1.485,0.769l0.009,0.019c-0.363,1.136-0.576,2.34-0.576,3.595
		c0,1.202,0.231,2.352,0.563,3.442l-0.009,0.017c-1.995,0.74-3.21,1.668-4.358,2.863h-0.02c-1.15-1.195-2.353-2.12-4.363-2.861
		L35.421,103C35.755,101.906,35.983,100.758,35.983,99.557"/>
	<path fill="#FFFFFF" d="M63.174,97.217l0.038,1.559l-0.303,0.002c-0.028-0.121-0.057-0.252-0.101-0.381
		c-0.044-0.127-0.103-0.252-0.186-0.363c-0.167-0.221-0.438-0.381-0.911-0.381c-1.429,0-1.567,1.416-1.567,2.334
		c0,0.943,0.161,2.386,1.675,2.354c0.452-0.008,1.148-0.261,1.608-0.869l0.036-0.051c0.09,0.061,0.235,0.173,0.306,0.223
		l-0.018,0.037c-0.511,0.911-1.517,1.258-2.135,1.258c-1.784,0-2.68-1.58-2.68-2.905c0-1.06,0.652-2.913,2.354-2.913
		c0.201,0,0.429,0.01,0.554,0.027c0.2,0.029,0.432,0.086,0.627,0.172c0.096,0.039,0.33,0.148,0.376,0.164
		c0.027-0.088,0.064-0.224,0.073-0.26L63.174,97.217"/>
	<path fill="#FFFFFF" d="M103.318,97.814c-0.021,0.029-0.365,0.467-0.748,0.978l-0.73,0.976l1.436,2.135
		c0.147,0.218,0.32,0.351,0.469,0.447c0.076,0.051,0.271,0.146,0.406,0.146l0.008,0.292h-2.387l-0.002-0.291
		c0.006,0,0.229-0.03,0.369-0.09c0.127-0.055,0.172-0.229,0.063-0.385l-0.968-1.436l-1.106,1.463
		c-0.092,0.111-0.107,0.236-0.063,0.303l0.149,0.112l0.162,0.029l0.004,0.292h-1.784v-0.295c0.144-0.01,0.23-0.033,0.352-0.096
		c0.091-0.047,0.163-0.104,0.225-0.174c0.064-0.066,0.12-0.141,0.179-0.215l1.492-2.009l-1.329-1.974
		c-0.223-0.301-0.543-0.512-0.864-0.521l-0.002-0.288l2.426,0.001l-0.003,0.288c-0.078,0.007-0.16,0.024-0.238,0.046l-0.17,0.062
		c-0.074,0.048-0.148,0.187-0.061,0.334l0.838,1.255l0.957-1.243c0.117-0.155,0.098-0.28,0.039-0.344
		c-0.022-0.022-0.062-0.053-0.127-0.076l-0.17-0.034l-0.002-0.288h1.782l-0.001,0.288l-0.143,0.021l-0.129,0.037
		C103.57,97.594,103.43,97.673,103.318,97.814"/>
	<path fill="#FFFFFF" d="M91.003,97.965L91,102.786l-0.217-0.001l-3.53-4.094l-0.003,3.332c0,0.143,0.088,0.262,0.239,0.365
		c0.151,0.092,0.275,0.103,0.411,0.108l0.005,0.292h-1.888v-0.293c0.104-0.012,0.221-0.028,0.33-0.069
		c0.188-0.069,0.32-0.194,0.32-0.399l0.002-3.983c-0.138-0.271-0.448-0.537-0.793-0.537l-0.006-0.286h1.451l3.084,3.645
		c0.003-0.598,0.001-2.76,0.001-2.902c-0.007-0.127-0.087-0.245-0.215-0.336c-0.079-0.055-0.146-0.072-0.229-0.093
		c-0.062-0.015-0.149-0.023-0.202-0.025l-0.005-0.289l1.899,0.001v0.286c-0.058,0.009-0.099,0.015-0.162,0.022
		c-0.083,0.017-0.199,0.043-0.272,0.087C91.084,97.698,91.003,97.805,91.003,97.965"/>
	<path fill="#FFFFFF" d="M68.389,98.443c-0.019-0.082-0.054-0.219-0.091-0.301c-0.074-0.162-0.209-0.328-0.492-0.328l-0.861,0.002
		v4.179c0,0.202,0.13,0.358,0.35,0.435c0.103,0.035,0.226,0.057,0.364,0.068l0.002,0.288h-2.34v-0.288
		c0.135-0.012,0.246-0.03,0.411-0.091c0.173-0.063,0.299-0.216,0.299-0.427l-0.002-4.164h-0.735c-0.442,0-0.583,0.187-0.662,0.379
		c-0.02,0.05-0.046,0.164-0.061,0.271c-0.012,0.087-0.012,0.229-0.012,0.229l-0.33-0.002l0.001-1.479h4.516v1.479h-0.338
		C68.409,98.581,68.405,98.521,68.389,98.443"/>
	<path fill="#FFFFFF" d="M72.122,97.656c-1.27-0.006-1.478,1.186-1.495,2.312c-0.016,1.156,0.357,2.397,1.498,2.398
		c1.167,0,1.471-1.271,1.439-2.421C73.536,98.832,73.336,97.662,72.122,97.656 M72.131,97.096c1.63,0.006,2.652,1.459,2.623,2.967
		c-0.03,1.467-1.006,2.881-2.609,2.883c-1.616,0.004-2.668-1.288-2.693-2.908C69.43,98.521,70.466,97.089,72.131,97.096"/>
	<path fill="#FFFFFF" d="M95.329,97.643c-1.27-0.007-1.478,1.187-1.494,2.312c-0.017,1.155,0.354,2.396,1.493,2.396
		c1.167,0,1.475-1.267,1.445-2.416C96.742,98.814,96.544,97.646,95.329,97.643 M95.339,97.08c1.629,0.006,2.653,1.458,2.622,2.966
		c-0.028,1.47-1.005,2.881-2.61,2.886c-1.613,0.004-2.665-1.291-2.69-2.91C92.636,98.506,93.674,97.074,95.339,97.08"/>
	<path fill="#FFFFFF" d="M57.434,97.675l-0.077,0.066c-0.046,0.051-0.076,0.123-0.076,0.233v4.072c0,0.172,0.099,0.268,0.275,0.35
		c0.101,0.049,0.257,0.086,0.371,0.104l0.004,0.286h-2.264v-0.288c0.078-0.01,0.322-0.067,0.408-0.116
		c0.133-0.074,0.243-0.154,0.243-0.354v-4.062c0-0.175-0.125-0.285-0.245-0.348c-0.062-0.029-0.127-0.055-0.187-0.071
		c-0.061-0.018-0.162-0.036-0.213-0.04l-0.007-0.29h2.263v0.287c-0.078,0.017-0.145,0.027-0.207,0.043
		c-0.065,0.019-0.141,0.039-0.197,0.073L57.434,97.675"/>
	<path fill="#FFFFFF" d="M79.535,98.949c0.004-1.04-0.639-1.172-1.361-1.172c-0.051,0-0.27,0.021-0.589,0.054v2.367l0.944-0.003
		C79.242,100.159,79.532,99.785,79.535,98.949 M80.496,102.23l0.048,0.052l0.059,0.046c0.086,0.068,0.266,0.167,0.496,0.166
		l0.004,0.292l-1.359-0.002l-1.21-2.074l-0.968,0.005v1.311c0,0.217,0.16,0.416,0.701,0.474l0.005,0.29h-2.357v-0.295
		c0.148,0,0.295-0.032,0.437-0.096c0.137-0.06,0.275-0.213,0.275-0.391v-4c0-0.162-0.15-0.333-0.367-0.41
		c-0.1-0.035-0.202-0.055-0.276-0.072l-0.132-0.02l0.002-0.287l0.636-0.002c0.025,0,1.163-0.002,2.052-0.021
		c0.924,0,2.065,0.654,2.065,1.725c0,0.555-0.249,1.35-1.147,1.639c0.148,0.254,0.688,1.168,0.92,1.494L80.496,102.23"/>
	<path fill="#FFFFFF" d="M84.014,97.675l-0.078,0.066c-0.045,0.051-0.076,0.123-0.076,0.233v4.072c0,0.172,0.098,0.268,0.276,0.35
		c0.1,0.049,0.256,0.086,0.372,0.104l0.004,0.286h-2.264v-0.288c0.077-0.01,0.32-0.067,0.406-0.116
		c0.134-0.074,0.245-0.154,0.245-0.354v-4.062c0-0.175-0.125-0.285-0.246-0.348c-0.062-0.029-0.127-0.055-0.186-0.071
		c-0.062-0.018-0.162-0.036-0.213-0.04l-0.007-0.29h2.262v0.287c-0.078,0.017-0.146,0.027-0.206,0.043
		c-0.068,0.019-0.141,0.039-0.2,0.073L84.014,97.675"/>
	<path fill="#FFFFFF" d="M50.803,96.742l1.608,4.602l1.562-4.535c0.079-0.233-0.037-0.408-0.442-0.461v-0.361h1.889l0.003,0.361
		c0,0-0.244,0.02-0.357,0.051c-0.135,0.037-0.278,0.147-0.382,0.392l-2.177,6.258h-0.41l-2.427-6.239
		c-0.188-0.434-0.512-0.449-0.659-0.449v-0.375h2.197c0,0.207-0.001,0.26-0.001,0.369C50.845,96.398,50.759,96.604,50.803,96.742"/>
</g>
</svg>
